<svg width="95" height="50" viewBox="0 0 95 50" fill="none" xmlns="http://www.w3.org/2000/svg">
    <path d="M74.3514 14.3513C74.2961 14.5124 74.1406 14.5627 74.0248 14.6475C69.987 17.6047 65.9492 20.5602 61.901 23.5035C61.6315 23.6992 61.5796 23.8603 61.6712 24.1774C62.4401 26.8383 62.8133 29.5599 62.8772 32.3282C62.8858 32.6851 62.8029 32.8064 62.4263 32.796C61.4328 32.7683 60.4359 32.7787 59.4407 32.7925C59.1659 32.796 59.0657 32.7371 59.0605 32.4322C58.8601 19.9625 50.6169 9.19054 38.5726 6.06359C28.7675 3.51872 19.98 5.77948 12.5005 12.6484C7.68169 17.0729 4.93453 22.6581 4.02054 29.1441C3.86849 30.2269 3.78556 31.32 3.79938 32.4149C3.80284 32.7007 3.72509 32.7994 3.42964 32.7942C2.42062 32.7769 1.4116 32.7735 0.402577 32.796C0.0587493 32.8046 -0.00172287 32.6764 4.90615e-06 32.3663C0.038016 28.1428 0.858709 24.0752 2.59858 20.2345C6.84372 10.8675 13.9501 4.84226 23.8744 2.20211C26.1637 1.59231 28.5083 1.33419 30.8805 1.29261C35.9861 1.20426 40.8239 2.2922 45.399 4.55989C45.6306 4.67422 45.7912 4.65517 46.002 4.5287C49.7478 2.25235 53.7926 0.790222 58.1379 0.265311C67.0342 -0.808766 75.0615 1.38616 82.0469 7.03892C88.0958 11.9329 91.7829 18.2959 93.2135 25.96C93.604 28.0492 93.7249 30.1628 93.699 32.2884C93.6938 32.6643 93.6005 32.8133 93.1876 32.7994C92.1941 32.7665 91.1972 32.7821 90.202 32.7925C89.9463 32.796 89.8702 32.7163 89.8789 32.4582C90.0326 27.9626 89.2068 23.6525 87.2164 19.6229C83.1768 11.4426 76.6959 6.2836 67.7806 4.37799C61.533 3.04232 55.5082 3.91717 49.7807 6.7756C49.4662 6.93152 49.4956 7.00428 49.753 7.18791C52.1063 8.87178 54.1813 10.8519 55.9851 13.1179C56.1251 13.2928 56.2667 13.3777 56.4983 13.3898C62.3589 13.6826 68.2195 13.984 74.0801 14.2872C74.1699 14.2924 74.2736 14.2595 74.3514 14.3513Z" fill="white"/>
    <path d="M11.5692 41.3797C11.4551 41.6551 11.3394 41.9306 11.2288 42.2078C10.2803 44.5846 9.32999 46.958 8.3918 49.3382C8.28123 49.6206 8.14128 49.7817 7.82337 49.7228C7.75598 49.7107 7.68514 49.7228 7.61603 49.7211C7.20482 49.6986 6.69686 49.8857 6.40659 49.6466C6.12496 49.4145 6.05412 48.919 5.90035 48.5344C4.98809 46.2494 4.081 43.9627 3.16701 41.6777C3.12036 41.5616 3.12036 41.4057 2.96313 41.3364C2.88193 41.4854 2.9234 41.6378 2.9234 41.7816C2.91994 44.3178 2.91476 46.854 2.92858 49.3902C2.93031 49.7176 2.84392 49.8129 2.5191 49.7991C1.89882 49.7731 1.2751 49.7713 0.653099 49.7991C0.307544 49.8147 0.215972 49.7142 0.217699 49.366C0.231521 45.9289 0.226338 42.4919 0.226338 39.0548C0.226338 38.4173 0.247071 37.7781 0.217699 37.1423C0.200422 36.7819 0.330005 36.7057 0.665193 36.7144C1.53599 36.7369 2.40679 36.7334 3.27759 36.7144C3.55231 36.7092 3.68189 36.7871 3.79074 37.0539C4.87751 39.7461 5.97983 42.433 7.08388 45.1182C7.13398 45.2394 7.13744 45.4456 7.28603 45.4543C7.47954 45.4646 7.46399 45.2394 7.51755 45.1112C8.61641 42.4382 9.71355 39.7651 10.7969 37.0868C10.9074 36.8131 11.037 36.7092 11.3359 36.7161C12.2344 36.7369 13.1328 36.7334 14.0313 36.7161C14.3094 36.7109 14.3734 36.8045 14.3734 37.0695C14.3665 41.1995 14.3647 45.3295 14.3734 49.4595C14.3734 49.7436 14.2801 49.8043 14.0209 49.7973C13.3713 49.7817 12.7216 49.7713 12.072 49.8008C11.7333 49.8164 11.6642 49.6968 11.6642 49.3816C11.6763 46.8731 11.6711 44.3646 11.6711 41.8561C11.6711 41.7054 11.6711 41.5564 11.6711 41.4057C11.6366 41.3987 11.602 41.3901 11.5692 41.3832V41.3797Z" fill="white"/>
    <path d="M83.9889 43.2471C83.9889 41.2116 83.9941 39.1743 83.9837 37.1388C83.982 36.8269 84.0476 36.7091 84.3897 36.7143C85.9361 36.7351 87.4859 36.6866 89.0305 36.7369C92.5846 36.8495 94.8566 39.1483 94.9896 42.7066C95.0397 44.0631 94.9205 45.3918 94.3054 46.6305C93.3984 48.453 91.8831 49.4231 89.9134 49.702C88.4448 49.9099 86.9607 49.754 85.4851 49.7904C85.1119 49.799 84.737 49.7678 84.3673 49.799C84.0373 49.8267 83.9837 49.6916 83.9837 49.3988C83.9941 47.3494 83.9889 45.2983 83.9889 43.2489V43.2471ZM86.7672 43.2194C86.7672 44.5066 86.7723 45.7937 86.7637 47.0809C86.7637 47.3165 86.8 47.4378 87.0747 47.4257C87.7641 47.3979 88.4552 47.4222 89.1428 47.3737C90.6719 47.268 91.731 46.362 92.0645 44.8842C92.3099 43.8032 92.3116 42.7153 92.068 41.6343C91.7397 40.1808 90.7151 39.2921 89.231 39.1466C88.5416 39.079 87.8505 39.1345 87.1628 39.0981C86.819 39.0808 86.7568 39.2142 86.762 39.5243C86.7775 40.756 86.7689 41.9877 86.7689 43.2194H86.7672Z" fill="white"/>
    <path d="M69.7503 43.4343C69.7486 42.0466 69.9196 40.8634 70.476 39.7634C71.3606 38.0102 72.7687 36.9465 74.7038 36.6433C76.6839 36.3332 78.5067 36.6988 80.0185 38.1055C81.024 39.041 81.6046 40.2259 81.8205 41.5789C82.116 43.4204 82.0451 45.2325 81.1502 46.9198C79.9718 49.139 77.5322 50.3101 74.963 49.9307C72.3264 49.5409 70.4518 47.7791 69.9352 45.2065C69.8073 44.5655 69.733 43.9211 69.7486 43.436L69.7503 43.4343ZM79.1511 43.2801C79.1598 42.4416 79.0595 41.6187 78.7071 40.8496C78.1663 39.6663 77.2333 39.0323 75.9409 39.0028C74.6917 38.9751 73.6723 39.481 73.1333 40.633C72.3074 42.3949 72.3074 44.2069 73.173 45.9601C73.7069 47.0428 74.6848 47.5227 75.8597 47.5192C77.0674 47.5158 78.0125 46.9909 78.5965 45.8925C79.0302 45.0748 79.1546 44.1913 79.1528 43.2818L79.1511 43.2801Z" fill="white"/>
    <path d="M36.4751 42.7915C37.2768 42.7915 38.0785 42.7915 38.8801 42.7915C39.008 42.7915 39.1773 42.7482 39.1756 42.97C39.1687 44.2138 39.2862 45.4715 38.8041 46.6634C37.9765 48.7146 36.3749 49.7211 34.2497 49.9376C32.7448 50.0918 31.2969 49.8545 30.0132 48.9796C28.567 47.9956 27.7809 46.582 27.5045 44.8877C27.2125 43.0912 27.2954 41.3138 28.1697 39.6663C29.2426 37.6446 30.9617 36.6329 33.2338 36.5515C34.9857 36.4874 36.5338 36.9811 37.7778 38.2666C38.4188 38.9301 38.8162 39.7235 39.0045 40.6278C39.0581 40.8859 38.9959 40.9691 38.7246 40.9621C37.9921 40.9448 37.2595 40.9517 36.5269 40.9587C36.342 40.9587 36.2228 40.9275 36.1572 40.7231C35.4626 38.587 32.2438 38.4138 30.9756 40.2744C30.5695 40.8703 30.3294 41.5286 30.2534 42.2406C30.1134 43.5382 30.1514 44.8132 30.8183 45.993C31.8999 47.9055 34.3914 47.7687 35.5006 46.9545C36.1088 46.5075 36.3939 45.8856 36.4958 45.1562C36.5269 44.9397 36.4543 44.8739 36.2366 44.8773C35.5179 44.8895 34.7991 44.8704 34.0804 44.8877C33.8039 44.8946 33.683 44.834 33.7003 44.5274C33.7245 44.0579 33.7193 43.585 33.7003 43.1138C33.6899 42.8574 33.778 42.7794 34.0303 42.7846C34.8458 42.7985 35.6613 42.7898 36.4768 42.7898L36.4751 42.7915Z" fill="white"/>
    <path d="M52.5987 49.7905C51.6674 49.7905 50.7586 49.7835 49.848 49.7957C49.6252 49.7991 49.6148 49.6484 49.5699 49.5081C49.3124 48.7198 49.0446 47.9351 48.8079 47.1416C48.7302 46.8783 48.6092 46.8038 48.3449 46.8056C47.0197 46.8177 45.6927 46.8194 44.3675 46.8056C44.0963 46.8021 43.9788 46.8974 43.901 47.1451C43.6626 47.9247 43.3948 48.6956 43.1581 49.4752C43.0873 49.7073 42.9905 49.8043 42.7313 49.7991C41.8623 49.7801 40.9932 49.7922 40.0757 49.7922C40.4196 48.7822 40.7496 47.8051 41.0865 46.8298C42.2026 43.5903 43.3274 40.3542 44.4315 37.1094C44.5351 36.8045 44.6664 36.7092 44.9826 36.7162C45.9346 36.7387 46.8884 36.7283 47.8421 36.7214C48.0408 36.7214 48.1583 36.7543 48.2343 36.9778C49.6684 41.1736 51.1162 45.3677 52.5572 49.56C52.5779 49.6224 52.5797 49.6917 52.5969 49.7905H52.5987ZM46.3873 39.7011C46.3286 39.7738 46.3061 39.7911 46.2992 39.8137C45.7964 41.3503 45.2988 42.8886 44.7908 44.4253C44.72 44.6418 44.8202 44.6505 44.9826 44.6505C45.8811 44.647 46.7795 44.6435 47.678 44.6522C47.9354 44.6557 47.9786 44.5881 47.8957 44.3404C47.5259 43.2403 47.1752 42.1333 46.8175 41.0281C46.6793 40.6002 46.5394 40.1723 46.3856 39.6993L46.3873 39.7011Z" fill="white"/>
    <path d="M16.6471 43.2281C16.6471 41.2064 16.6541 39.183 16.6402 37.1613C16.6385 36.8321 16.7024 36.7091 17.0653 36.7126C19.7174 36.7299 22.3695 36.7265 25.0234 36.7143C25.3379 36.7143 25.4657 36.7836 25.4467 37.1214C25.4191 37.6325 25.4225 38.147 25.4467 38.6581C25.4605 38.9595 25.3465 39.0271 25.0649 39.0253C23.3388 39.0149 21.611 39.0288 19.885 39.0132C19.5429 39.0097 19.3978 39.0686 19.4168 39.4602C19.453 40.193 19.4461 40.9292 19.4185 41.662C19.4064 42.0033 19.4962 42.109 19.8487 42.1038C21.4227 42.0847 22.9984 42.1055 24.5742 42.0864C24.9249 42.083 25.0251 42.1869 25.0061 42.5299C24.9785 43.0133 24.9802 43.5001 25.0061 43.9834C25.0217 44.3004 24.9387 44.4078 24.6018 44.4044C23.014 44.3853 21.4244 44.4044 19.8349 44.3888C19.5101 44.3853 19.4116 44.4719 19.422 44.8028C19.4461 45.5633 19.4444 46.3273 19.422 47.0878C19.4133 47.4083 19.498 47.5123 19.8297 47.5088C21.5696 47.4932 23.3112 47.5088 25.051 47.4932C25.3862 47.4897 25.5141 47.5625 25.4916 47.9228C25.4588 48.4339 25.4726 48.9484 25.4882 49.4595C25.4951 49.702 25.4432 49.7955 25.1737 49.7938C22.4386 49.7834 19.7036 49.7817 16.9668 49.7938C16.6506 49.7938 16.6471 49.6466 16.6471 49.4162C16.6506 47.3529 16.6489 45.2879 16.6489 43.2246L16.6471 43.2281Z" fill="white"/>
    <path d="M58.3625 43.2558C58.3625 41.2203 58.3712 39.1847 58.3539 37.1492C58.3504 36.7992 58.4524 36.7109 58.7928 36.7143C60.4082 36.7317 62.0237 36.7109 63.6409 36.7247C65.1976 36.7386 66.5798 37.1994 67.461 38.5714C68.4234 40.0717 68.4735 41.6949 67.715 43.2835C66.979 44.8253 65.5967 45.4386 63.9709 45.5408C63.145 45.5928 62.314 45.5685 61.4864 45.5581C61.2203 45.5547 61.1304 45.6257 61.1339 45.9046C61.1494 47.067 61.1253 48.2312 61.1494 49.3936C61.1564 49.7332 61.0475 49.8077 60.7331 49.7973C60.0713 49.7748 59.4061 49.7713 58.7444 49.7973C58.4247 49.8094 58.3539 49.7055 58.3556 49.4023C58.3677 47.3529 58.3625 45.3035 58.3625 43.2541V43.2558ZM61.1408 41.1458C61.1408 41.7677 61.1443 42.3896 61.1391 43.0115C61.1391 43.1952 61.1443 43.3268 61.3931 43.3216C62.0686 43.3043 62.7459 43.339 63.4197 43.2991C64.5514 43.2316 65.2823 42.4433 65.3289 41.2965C65.379 40.0457 64.764 39.2419 63.6063 39.053C62.8669 38.9318 62.1205 39.0253 61.3775 38.9924C61.1529 38.982 61.1391 39.1085 61.1408 39.28C61.1443 39.9019 61.1408 40.5238 61.1408 41.1458Z" fill="white"/>
    <path d="M36.9122 27.1031C34.578 27.1118 32.6878 25.2581 32.6809 22.9489C32.674 20.5391 34.495 18.656 36.8431 18.6474C39.2205 18.6387 41.0934 20.4872 41.1107 22.8588C41.128 25.1854 39.2412 27.091 36.9105 27.1014L36.9122 27.1031Z" fill="white"/>
</svg>
