<?xml version="1.0" encoding="UTF-8"?>
<svg id="Layer_2" data-name="Layer 2" xmlns="http://www.w3.org/2000/svg" viewBox="0 0 216.48 207.33">
  <defs>
    <style>
      .cls-1 {
        fill: #fff;
        stroke-width: 0px;
      }
    </style>
  </defs>
  <g id="Layer_1-2" data-name="Layer 1">
    <g>
      <path class="cls-1" d="m102.06,47.62c29.49,0,58.98.09,88.47-.06,8.09-.04,13.41,5.96,13.28,13.32-.18,10.37-.06,20.74-.03,31.11,0,1.08-.25,1.48-1.41,1.48-22.36-.03-44.73.03-67.09-.05-14.86-.06-25.5,10.41-25.46,25.27.02,5.55.02,11.09,0,16.64-.04,14.85,10.64,25.33,25.46,25.26,21.01-.11,42.02-.02,63.04-.02,1.44,0,2.89.02,4.33-.03.79-.02,1.13.21,1.13,1.07-.03,11.32.07,22.64-.09,33.95-.1,6.76-5.56,11.73-12.52,11.74-13.21.03-26.42.01-39.64.01-37.88,0-75.75,0-113.63,0-8.39,0-16.77.02-25.16,0-7.39-.02-12.68-5.19-12.7-12.58-.06-19.61-.02-39.23-.03-58.84,0-25.12,0-50.23,0-75.35,0-5.97,3.24-10.64,8.5-12.34,1.43-.46,2.91-.59,4.4-.59,26.56,0,53.12,0,79.68.01,3.16,0,6.31,0,9.47,0Z"/>
      <path class="cls-1" d="m167.98,153.3c-11.95,0-23.89,0-35.84,0-6.93,0-11.64-4.12-12.61-11-.33-2.38-.18-4.77-.19-7.16-.02-6.63-.01-13.25,0-19.88,0-3.94,1.13-7.47,3.9-10.36,2.07-2.15,4.6-3.3,7.6-3.3,24.79,0,49.59-.01,74.38.03,3.94,0,6.82,2.06,8.92,5.27,1.49,2.28,2.28,4.83,2.29,7.54.04,8.74.08,17.49,0,26.23-.06,6.03-4.05,11.23-9.24,12.42-.98.22-1.97.2-2.96.2-12.08,0-24.16,0-36.24,0Zm-19.4-17.02c4.91.02,8.87-3.89,8.89-8.79.02-4.82-3.9-8.79-8.72-8.85-4.9-.06-8.9,3.86-8.94,8.75-.04,4.93,3.84,8.87,8.77,8.89Z"/>
      <path class="cls-1" d="m79.51,39.75c2.22-.61,4.32-1.19,6.42-1.77,23.05-6.29,46.13-12.46,69.04-19.21,3.03-.89,6.03-1.86,9.26-1.68,2.49.14,4.79.79,6.84,2.24,1.86,1.31,3.17,2.93,3.77,5.24,1.22,4.71,2.63,9.37,4.02,14.04.32,1.08.25,1.49-1.05,1.49-32.33-.03-64.66-.02-96.98-.03-.38,0-.8.15-1.32-.33Z"/>
      <path class="cls-1" d="m38.93,39.55c.94-.48,1.88-.97,2.83-1.44C66.35,25.95,90.98,13.86,115.48,1.49c5.38-2.71,11.19-1.68,15.33,2.69.27.29.5.64.69.99,1.63,3.11,3.25,6.23,4.86,9.36.71,1.38.7,1.38-.86,1.82-16.05,4.52-32.09,9.03-48.13,13.55-11.53,3.25-23.07,6.5-34.6,9.77-.97.27-1.93.39-2.93.39-3.6-.02-7.2,0-10.8,0-.04-.16-.07-.33-.11-.49Z"/>
    </g>
  </g>
</svg>