<?xml version="1.0" encoding="UTF-8"?>
<svg id="Layer_2" data-name="Layer 2" xmlns="http://www.w3.org/2000/svg" viewBox="0 0 282.92 350.9">
  <defs>
    <style>
      .cls-1 {
        fill: #e8f8fb;
      }

      .cls-1, .cls-2, .cls-3, .cls-4, .cls-5, .cls-6, .cls-7, .cls-8, .cls-9, .cls-10, .cls-11, .cls-12, .cls-13, .cls-14, .cls-15, .cls-16, .cls-17 {
        stroke-width: 0px;
      }

      .cls-2 {
        fill: #93cbd3;
      }

      .cls-3 {
        fill: #060606;
      }

      .cls-4 {
        fill: #306383;
      }

      .cls-6 {
        fill: #37739a;
      }

      .cls-7 {
        fill: #bee7ed;
      }

      .cls-8 {
        fill: #f08d26;
      }

      .cls-18 {
        font-family: Inter-Bold, Inter;
        font-size: 39.41px;
        font-weight: 700;
      }

      .cls-9 {
        fill: #2c2a24;
      }

      .cls-10 {
        fill: #fff;
      }

      .cls-11 {
        fill: #facb59;
      }

      .cls-12 {
        fill: #524f44;
      }

      .cls-13 {
        fill: #f9d673;
      }

      .cls-14 {
        fill: #0a0a09;
      }

      .cls-15 {
        fill: #f69304;
      }

      .cls-16 {
        fill: #f9c144;
      }

      .cls-17 {
        fill: #c56a1c;
      }
    </style>
  </defs>
  <g id="Layer_1-2" data-name="Layer 1">
    <g>
      <g>
        <g>
          <path class="cls-14" d="m282.92,293.03c-1.99,1.99-4.02,3.93-5.95,5.97-3.94,4.17-4.92,4.19-8.51-.05-.63-.74-1.3-1.45-2.18-2.43-2.38,3.44-1.51,6.1.36,9.19,8.83,14.6,3.79,33.11-11.05,41.41-14.07,7.87-32.19,2.52-40.06-11.76-3.06-5.54-3.48-11.64-4.35-17.78-.29,3.18-.3,6.42-.93,9.53-2.35,11.68-9.49,19.42-20.81,22.52-11.71,3.21-22.41.14-30.29-9.11-7.69-9.03-9.26-19.65-4.5-30.8,1.1-2.58,1.57-4.97.43-7.66-1.09-2.59-2.01-5.26-2.32-8.11-.33-3.02-2.2-3.91-5.21-4.02-3.44-.13-3.35,1.89-4.02,4.25-1.61,5.74-1.05,10.7,1.26,16.49,4.53,11.33,2.56,22.44-6.45,31.26-8.86,8.66-19.61,11.27-31.28,6.8-11.87-4.54-17.93-13.75-18.92-26.37-.13-1.6.59-3.32-.59-4.9-1.71,1.45-.97,3.35-.99,5-.19,16.2-14.44,29.59-30.26,28.36-18.08-1.41-30.85-16.79-27.96-33.77.42-2.45.64-5.24,1.98-7.15,3.11-4.43,2.1-8.58.27-12.94-1.21-.14-1.57.96-2.11,1.73-2.35,3.38-4.75,3.19-7.19.14-1.56-1.95-2.97-4.03-4.64-5.87-2.26-2.5-2.21-4.99-.58-7.74,3.31-5.6,7.44-10.49,13.51-15.34-4.47,0-7.86.06-11.25-.01-6.07-.14-7.18-1.31-7.14-7.45.01-1.32.19-2.65.3-3.97.28-3.21-1.04-4.45-4.37-4.25-6.58.4-7.09-.21-7.1-6.83,0-4.66.08-9.33-.03-13.99-.08-3.41,1.52-4.87,4.81-4.85,6.33.02,12.66.05,18.99-.01,3.55-.04,5.22,1.64,5.22,5.13,0,3.66.03,7.33,0,10.99-.02,1.46.12,2.7,1.96,2.83,1.8.12,2.89-.63,2.98-2.5.07-1.5.07-3,.07-4.49-.05-54.13-.13-108.26-.15-162.39,0-11.36-.8-9.41,9.67-9.42,73.47-.06,146.93-.03,220.4-.03q7.01,0,7.01,7.15c0,54.63,0,109.26,0,163.9,0,8.11-.72,7.14,7.23,7.21,1.31.01,2.62.25,3.93.37,0,7.49,0,14.98,0,22.48-2.99.24-5.98.48-9.57.76,4.1,3.44,8.29,6,10.4,10.53v11.99Zm-242.82-25.04c1.47,1.67,3.44.91,5.16.91,71.23.05,142.46.06,213.69.05,1.78,0,3.68.51,5.31-.73,1.25-1.44.75-3.18.75-4.79-.01-61.42-.09-122.84-.02-184.26,0-3.87-.92-4.98-4.94-4.97-71.25.09-142.51.01-213.76-.03-7.41,0-7.38,0-6.52,7.66.18,1.65.09,3.32.09,4.99,0,48.94,0,97.87.02,146.81,0,11.45.14,22.91.22,34.36Zm239.97,18.44c-.5-.84-.93-1.73-1.51-2.51-4.6-6.16-10.21-9.92-18.44-9.9-73.1.14-146.21.08-219.32.08-7.7,0-16.18,5.76-19.09,12.83-1.05,2.56.5,4.25,1.93,5.67,1.58,1.57,2.63-.4,3.61-1.35,5.34-5.18,11.89-7.09,19.1-7.03,23.29.19,46.59.19,69.88.4,44.11.38,88.22-.22,132.33-.42,7.9-.04,15.1,1.81,21.05,7.39,1.19,1.11,2.21,3.78,4.34,2.05,2.38-1.93,5.03-3.85,6.11-7.21Zm-162.81,57.62c12.82,1.06,23.23-9.18,23.68-23.33.38-12.01-10.69-22.64-23.08-22.67-13.4-.03-24.11,9.96-23.79,22.85.31,12.45,8.51,23.71,23.19,23.15Zm123.99,0c13.97.72,23.45-9.51,23.65-23.15.18-12.76-10.32-22.85-23.28-22.85-12.73,0-23.82,10.28-23.51,22.71.35,13.76,10.1,24.11,23.14,23.29Zm-59.8,0c13.1,1.05,23.13-10.06,23.47-23.01.33-12.33-10.67-22.93-23.26-23.01-13.18-.09-23.66,9.33-23.54,23.51.1,12.68,10.27,23.53,23.33,22.51Zm-123.84,0c12.93,1.01,22.93-9.78,23.33-22.59.41-12.89-10.3-23.41-23.25-23.41-12.93,0-23.97,10.31-23.62,22.57.4,14.13,10.74,24.5,23.55,23.43ZM14.26,234.08q-8.27.03-8.27,8.12c0,.5.06,1.01,0,1.5-.6,4.22,1.32,5.83,5.4,5.32,4.38-.54,6.14,1.44,5.67,5.78-.2,1.81-.07,3.66.01,5.49.1,2.12,1.29,3.54,3.38,3.63,3.66.17,7.32.06,10.99.03,1.07,0,1.85-.52,2.33-1.55,2.17-4.57-.44-9.17-5.53-9.3-3.56-.09-5.23-1.64-5.22-5.13,0-1.67.02-3.33,0-5-.12-9.29,1.47-9.03-8.75-8.89Z"/>
          <path class="cls-6" d="m282.92,270.04c-.3-.04-.57-.14-.83-.3,0-7.49,0-14.99,0-22.48.24-.22.51-.29.82-.21v22.99Z"/>
          <path class="cls-6" d="m40.1,267.99c-.08-11.45-.21-22.91-.22-34.36-.03-48.94-.01-97.87-.02-146.81,0-1.66.09-3.34-.09-4.99-.86-7.66-.89-7.66,6.52-7.66,71.25.04,142.51.12,213.76.03,4.02,0,4.95,1.1,4.94,4.97-.08,61.42,0,122.84.02,184.26,0,1.61.5,3.35-.75,4.79-5.51.19-10.63-.29-14.7-4.93-3.59-4.09-7.91-7.5-11.9-11.22-12.22-11.37-24.82-22.3-37.59-33.04,2.9-4.6,5.48-9.3,4.75-15.05.46-1.66.37-3.29-.21-4.9-.62-3.71-.83-7.55-1.97-11.09-1.52-4.74-3.78-9.25-9.89-9.41-4.74-.82-9.3-.2-13.7,1.68-.36.01-.73.02-1.09.04-4.66-.01-9.32-.02-13.99-.03-3.96-.7-8.07.24-11.98-1.06-5.78-6.3-12.82-11.11-19.45-16.41-1.54-1.23-4.68-2.11-2.53-5.28,1.98-.14,3.96-.39,5.95-.39,14.48-.03,28.96-.14,43.43.07,3.74.05,4.82-1.01,4.79-4.76-.18-18.63-.17-37.27,0-55.9.03-3.45-.87-4.51-4.41-4.48-18.3.18-36.61.28-54.91-.05-5.02-.09-6.01,1.57-5.97,6.18.17,17.63-.06,35.26-.14,52.88-1.53-.79-2.95-1.87-4.77-1.95-.06-16.96-.21-33.92-.12-50.87.02-4.47-1.03-6.46-6.16-6.36-18.12.37-36.26.42-54.38.11-4.84-.08-6.15,1.82-6.16,5.92-.14,1.08-.36,2.16.42,3.12,0,18.02,0,36.03,0,54.05-2.5-.92-1.51-3.09-1.51-4.73-.07-15.31-.05-30.63-.04-45.94,0-3.42-.25-6.66-4.97-7.64,0,2.11,0,3.91,0,5.71,0,53.27,0,106.54-.04,159.8,0,1.91.76,4.02-.9,5.7ZM222.32,92.13c-9.65,0-19.29.05-28.94-.03-2.35-.02-3.53.36-3.63,3.19-.7,19.1-.68,38.2-.73,57.3,0,3.43,1.11,4.64,4.63,4.61,18.79-.14,37.59-.16,56.38,0,3.78.03,4.88-1.26,4.86-4.89-.13-18.62-.14-37.25.01-55.88.03-3.63-1.29-4.44-4.64-4.37-9.31.2-18.63.07-27.94.07Zm40.74-4.67c.16-8.3-8.72-14.15-16.17-10.68-1.87.87-2.56,2.09-.39,2.95,5.85,2.32,8.93,7.06,11.6,12.28.59,1.15,1.18,2.58,2.88,2.09,1.51-.43,1.73-1.85,1.88-3.18.13-1.15.14-2.31.19-3.46Z"/>
          <path class="cls-4" d="m200.07,219.04c12.77,10.74,25.36,21.67,37.59,33.04,3.99,3.71,8.32,7.13,11.9,11.22,4.07,4.64,9.19,5.12,14.7,4.93-1.63,1.24-3.53.73-5.31.73-71.23.01-142.46,0-213.69-.05-1.73,0-3.69.75-5.16-.91,1.66-1.68.9-3.8.9-5.7.05-53.27.04-106.54.04-159.8,0-1.8,0-3.6,0-5.71,4.72.98,4.97,4.22,4.97,7.64,0,15.31-.03,30.63.04,45.94,0,1.64-.99,3.81,1.52,4.73,1.1,2.65,3.44,2.17,5.55,2.17,17.46.02,34.92,0,52.39,0q8,0,8.46-8.14c1.82.08,3.24,1.16,4.77,1.95,0,4.58,2.16,6.71,6.85,6.22,1.45-.15,2.95.14,4.43.23-2.15,3.17.99,4.05,2.53,5.28,6.63,5.29,13.67,10.11,19.45,16.41-1.06.13-2.11.27-3.17.4-6.64-.7-13.28-1.4-19.92-2.1-4.69-.62-9.38-1.25-14.08-1.87-6.28-4.21-10.25-3.24-14.1,3.38-4.66,8-6.36,16.89-7.96,25.82-.32.05-.59.2-.8.45-1.42.85-1.61,2.25-1.66,3.71-.66,1.38-.57,2.79-.18,4.22.05.54.11,1.09.16,1.64.16,2.5,1.14,4.62,3.55,5.5,3.4,1.24,4.61,3.94,5.63,7.04,2.02,6.16,3.45,12.45,4.38,18.85.35,2.37,1.24,3.37,3.63,3.8,21.86,3.86,43.7,7.83,65.55,11.78,2.8-1.35,4.69-3.8,6.98-5.76,4.03-2.9,7.89-6.11,12.16-8.62,3.28-1.93,4.62-4.13,4.54-7.96-.16-6.97.6-13.9,3.37-20.44Z"/>
          <path class="cls-15" d="m280.07,286.42c-1.08,3.36-3.73,5.28-6.11,7.21-2.13,1.72-3.15-.94-4.34-2.05-5.95-5.58-13.16-7.42-21.05-7.39-44.11.2-88.23.8-132.33.42-23.29-.2-46.59-.21-69.88-.4-7.21-.06-13.76,1.85-19.1,7.03-.98.95-2.04,2.92-3.61,1.35-1.43-1.42-2.98-3.11-1.93-5.67,2.91-7.06,11.39-12.83,19.09-12.83,73.11,0,146.21.06,219.32-.08,8.22-.02,13.84,3.75,18.44,9.9.58.78,1.01,1.67,1.51,2.51Z"/>
          <path class="cls-12" d="m117.26,344.05c-14.68.57-22.89-10.7-23.19-23.15-.32-12.89,10.39-22.88,23.79-22.85,12.39.03,23.46,10.66,23.08,22.67-.45,14.16-10.85,24.4-23.68,23.33Zm6.75-20.97c-.02-5.27-3.49-9.06-6.67-8.93-3.08.13-6.4,3.86-6.34,7.12.08,4.32,2.59,6.83,6.75,6.75,4.33-.08,6.18-2.49,6.26-4.94Z"/>
          <path class="cls-12" d="m241.25,344.05c-13.04.82-22.79-9.53-23.14-23.29-.31-12.43,10.78-22.71,23.51-22.71,12.96,0,23.46,10.09,23.28,22.85-.2,13.64-9.67,23.87-23.65,23.15Zm6.7-22.67c-.04-3.64-3.66-7.79-6.74-7.12-3.57.78-6.36,2.77-6.3,7.13.06,4.4,2.36,6.74,6.78,6.63,4.12-.1,6.31-2.42,6.26-6.64Z"/>
          <path class="cls-12" d="m181.45,344.05c-13.06,1.02-23.23-9.83-23.33-22.51-.12-14.18,10.36-23.59,23.54-23.51,12.59.08,23.58,10.68,23.26,23.01-.34,12.95-10.38,24.06-23.47,23.01Zm-.05-16.04c4.24.02,6.5-2.16,6.58-6.32.07-3.66-3.21-7.51-6.45-7.57-3.2-.06-6.58,3.77-6.56,7.45.02,4.18,2.26,6.43,6.43,6.44Z"/>
          <path class="cls-12" d="m57.61,344.05c-12.81,1.07-23.15-9.31-23.55-23.43-.35-12.26,10.69-22.57,23.62-22.57,12.95,0,23.66,10.52,23.25,23.41-.4,12.81-10.4,23.6-23.33,22.59Zm-.16-16.03c3.59.04,7.43-3.31,7.46-6.49.02-2.75-4.33-7.24-7.17-7.38-3.18-.16-6.72,3.7-6.74,7.34-.01,3.92,2.53,6.5,6.45,6.54Z"/>
          <path class="cls-12" d="m14.26,234.08c10.22-.13,8.63-.39,8.75,8.89.02,1.67.01,3.33,0,5-.01,3.5,1.66,5.04,5.22,5.13,5.1.13,7.71,4.73,5.53,9.3-.49,1.02-1.26,1.54-2.33,1.55-3.66.03-7.33.13-10.99-.03-2.09-.09-3.28-1.51-3.38-3.63-.09-1.83-.21-3.68-.01-5.49.47-4.33-1.29-6.32-5.67-5.78-4.08.51-6-1.1-5.4-5.32.07-.49,0-1,0-1.5q0-8.09,8.27-8.12Z"/>
          <path class="cls-8" d="m173.03,261.81c-21.85-3.94-43.69-7.92-65.55-11.78-2.39-.42-3.29-1.42-3.63-3.8-.93-6.39-2.35-12.69-4.38-18.85-1.02-3.1-2.23-5.8-5.63-7.04-2.41-.88-3.4-3-3.55-5.49,4.21.22,8.45.04,12.57,1.21,3.53.16,7.05.32,10.58.48.04-.33.09-.66.13-.99-3.6-.48-7.21-.96-10.81-1.44-4.21-.25-8.5.56-12.63-.89-.39-1.43-.47-2.84.18-4.22,8.75.3,17.34,2,26.01,2.97,13.44,1.52,13.46,1.36,10.39,14.22-6.27-.08-12.36-1.6-18.48-2.66-3.21-.55-3.6.6-2.87,3.06,1.4,4.73,2.94,9.41,4.39,14.13.35,1.14.57,2.3,2.12,2.25.07.36.15.72.23,1.09.53.33,1.02.87,1.58.97,15.32,2.7,30.77,4.65,46,7.88,8.32,1.77,8.39,1.47,8.14-7.73l.09-11.03c1.5-2.39-.23-3.39-1.87-2.73-2.97,1.18-5.62.08-8.22-.48-6.54-1.41-13.5-.62-19.68-3.79-.37-4.69.46-9.47-1.14-14.06,1.31.03,2.62.06,3.93.09.82,1.02,1.93.9,3.05.77,9.78,1.31,19.56,2.65,29.36,3.9,1.54.2,3.32.86,4.58-.84,2.14.23,3.72-1.01,5.51-1.89,7.24-3.53,13.53-8.87,21.41-11.15.73,5.75-1.85,10.45-4.75,15.05-2.77,6.54-3.52,13.46-3.37,20.44.09,3.83-1.26,6.03-4.54,7.96-4.27,2.51-8.12,5.71-12.16,8.62-1.68-.71-2.13-2.12-2.12-3.78,2.29-.15,3.98-1.32,5.28-3.13,1.76-.29,2.81-1.56,3.86-2.82,2.3-1.36,5.14-2.16,5.63-5.4l.3.16c1.81-6.64,2.39-13.49,3.29-20.28.08-.61-.99-.14-1.4.36-2.03.32-3.44,1.67-4.88,2.96-1.41.05-2.39.74-2.98,2.01-3.42,1.47-6.85,2.92-9.2,6.02-5.62-.64-5.91,3.74-5.62,7.09.65,7.53.83,15.05.87,22.59Z"/>
          <path class="cls-14" d="m222.32,92.13c9.31,0,18.63.13,27.94-.07,3.35-.07,4.68.74,4.64,4.37-.16,18.62-.14,37.25-.01,55.88.02,3.63-1.08,4.93-4.86,4.89-18.79-.17-37.59-.15-56.38,0-3.52.03-4.64-1.18-4.63-4.61.05-19.1.03-38.2.73-57.3.1-2.84,1.28-3.21,3.63-3.19,9.65.08,19.29.03,28.94.03Zm4.71,59.5c6.31.06,12.63.06,18.94.22,2.4.06,3.16-.89,3.15-3.23-.07-16.13-.08-32.26,0-48.39.01-2.44-.85-3.07-3.18-3.05-15.97.08-31.93.07-47.9.01-2.21,0-3.39.43-3.29,2.99.23,5.98.23,11.96.33,17.94-.1,10.27-.16,20.54-.33,30.81-.04,2.56,1.3,2.99,3.43,2.96,9.61-.13,19.22-.18,28.83-.26Z"/>
          <path class="cls-3" d="m113.97,149.12q-.46,8.14-8.46,8.14c-17.46,0-34.92,0-52.39,0-2.11,0-4.46.48-5.55-2.17,0-18.02,0-36.03,0-54.04.42-1.11.49-2.18-.42-3.12.01-4.1,1.33-6.01,6.16-5.92,18.12.31,36.26.25,54.38-.11,5.12-.1,6.18,1.89,6.16,6.36-.09,16.96.06,33.92.12,50.87Zm-60.54-50.91c.03,6.95.06,13.9.09,20.84-.15,9.81-.25,19.62-.49,29.42-.06,2.69,1.15,3.46,3.61,3.43,9.81-.13,19.63-.17,29.44-.24,7,0,14.02.88,20.98-.47.66-.06.94-.39.74-1.05-.03-17.33-.06-34.65-.09-51.98.17-.65-.07-.89-.72-.72-17.33-.03-34.66-.06-51.99-.09-.8-.21-1.43-.11-1.57.87Z"/>
          <path class="cls-3" d="m130.02,157.52c-1.48-.09-2.98-.38-4.43-.23-4.69.49-6.85-1.64-6.85-6.22.08-17.63.31-35.26.14-52.88-.04-4.61.94-6.27,5.97-6.18,18.3.33,36.61.22,54.91.05,3.55-.03,4.44,1.03,4.41,4.48-.16,18.63-.17,37.27,0,55.9.04,3.74-1.05,4.81-4.79,4.76-14.47-.21-28.95-.1-43.43-.07-1.98,0-3.96.26-5.95.39Zm23.04-5.93c7.65.07,15.31.11,22.96.23,2.08.03,2.98-.69,2.97-2.9-.06-16.32-.06-32.64,0-48.95,0-2.21-.8-2.85-2.92-2.85-16.15.06-32.31.08-48.46-.02-2.79-.02-3.43,1.25-3.34,3.63.29,7.79-.65,15.63.75,23.38-1.73,8.37-.45,16.82-.72,25.23-.07,2.22,1.59,2.56,3.44,2.54,8.44-.12,16.88-.2,25.32-.29Z"/>
          <path class="cls-17" d="m192.76,178.59c6.11.17,8.36,4.67,9.89,9.41,1.14,3.54,1.35,7.38,1.97,11.09-6.59,2.78-6.56,2.78-6.62-4.88-.02-3.05.68-6.43-3.03-8.13-1.09-1.42-2.53-1.05-3.94-.74-2.89-.12-4.53,1.54-5.68,3.94-1.79,3.75-2.89,7.67-3.15,11.82-.09,1.31-.18,2.62-.27,3.93-1.21,3.3-.59,7.91-5.92,8.25-1.8-3.76.78-7.64-.29-11.42.1-.59.21-1.17.31-1.76,1.4-1.09.86-2.63.93-4.02h-.01c1.96-1.54,2.1-3.72,2.05-5.96h0c3.95-4.59,7.76-9.36,13.76-11.52Z"/>
          <path class="cls-13" d="m163.98,180.27c4.66.01,9.32.02,13.99.03-1.23,1.21-2.95,1.38-4.4,2.1-6.67,3.3-13.25,6.77-15.6,14.68-1.36.59-2,1.65-2.02,3.11-1.72-1.2-3.27-2.88-5.73-1.76-3.05,1.39-3.34-.47-3.22-2.79.08-1.48.12-2.96.18-4.44,4.79-4.89,10.77-7.97,16.81-10.94Z"/>
          <path class="cls-8" d="m175.72,201.85c1.07,3.78-1.52,7.66.29,11.42,0,.3,0,.61-.01.91-3.08-.27-6.16-.57-8.92-2.17.64-3.3,1.28-6.6,1.93-9.91,1.81-7.99,5.44-15.14,10.06-21.84,4.4-1.88,8.96-2.5,13.7-1.68-6,2.16-9.81,6.93-13.76,11.53-.08-.76-.17-1.51-.3-2.75-2.99,3.95-3.58,8.17-4.58,12.23-.29,1.17-.13,2.36,1.6,2.25Z"/>
          <path class="cls-16" d="m175.99,214.18c.02-.31.02-.61.01-.91,5.33-.34,4.71-4.95,5.92-8.24q.2,5.36,4.04,3.07c4.2-.46,6.16-3.15,6.95-7,.68-5.01,1.36-10.01,2.04-15.02,3.71,1.7,3,5.09,3.03,8.13.06,7.66.03,7.66,6.62,4.88.58,1.61.67,3.24.21,4.9-7.88,2.29-14.17,7.62-21.41,11.15-1.79.87-3.37,2.11-5.51,1.89-.64-.95-1.28-1.9-1.91-2.85Z"/>
          <path class="cls-16" d="m179.05,180.27c-4.62,6.69-8.25,13.84-10.06,21.84.16-3.09-1.89-3.97-4.36-3.94-2.32.03-4.47-.59-6.68-1.07,2.35-7.91,8.93-11.38,15.6-14.68,1.45-.72,3.17-.89,4.4-2.1.36-.01.73-.02,1.09-.04Z"/>
          <path class="cls-7" d="m263.05,87.46c-.06,1.16-.07,2.32-.2,3.46-.15,1.32-.37,2.75-1.88,3.18-1.71.49-2.3-.94-2.88-2.09-2.67-5.23-5.75-9.96-11.6-12.28-2.17-.86-1.48-2.08.39-2.95,7.45-3.46,16.34,2.38,16.17,10.68Z"/>
          <path class="cls-16" d="m163.98,180.27c-6.04,2.97-12.02,6.05-16.81,10.94-.45-2.36.25-5.32-3.2-6.1-.34-1.04-.68-2.08-1.01-3.12,1.96-.79,3.92-1.58,5.88-2.37,1.06-.13,2.11-.27,3.17-.4,3.91,1.31,8.02.36,11.98,1.06Z"/>
          <path class="cls-4" d="m47.15,97.92c.91.94.84,2,.42,3.12-.78-.95-.56-2.04-.42-3.12Z"/>
          <path class="cls-13" d="m148.83,179.61c-1.96.79-3.92,1.58-5.88,2.38-5.34-.61-9.38,1.32-11.76,6.21-.79,1.62-1.28,3.4-1.78,5.14-.61,2.12-1.19,3.39-3.54,1.29-2.77-2.49-4.9-2.38-6.61,1.65-2,4.73.39,7.34,3.56,9.94l.05-.02c.35,1.43,1.16,2.59,2.68,1.86.73-.35.12-1.45-.65-1.94-.14-2.33-5.33-6.37,2.08-6.13.64,1.06,1.28,2.13,1.92,3.19.18,1.3-.1,2.74,1.1,3.74,1.39,1.77,10,3.69,11.48,2.4.47-.41.35-1.5.5-2.28,1.73-.17,2.72-1.15,3.06-2.83.64-.72,1.28-1.45,1.92-2.17,5.62-.25,1.72,3.18,1.93,5.01,0,0,.05-.02.05-.02-.35.35-.7.7-1.05,1.05,0,0,.06-.06.06-.06-.36.35-.72.71-1.08,1.06-1.29.64-2.15,1.5-.03,1.93,2.94.59,4.95-1.48,7.08-3.05-.15,1.99.72,2.75,2.72,3.34,3.48,1.01,6.92.7,10.4.71,2.76,1.6,5.84,1.9,8.92,2.17.64.95,1.28,1.9,1.91,2.85-1.26,1.69-3.03,1.03-4.58.84-9.79-1.25-19.57-2.59-29.36-3.9-.81-1.08-1.94-.89-3.05-.77-1.31-.03-2.62-.06-3.93-.09-.55-.32-1.07-.86-1.65-.93-11.07-1.41-22.2-2.47-33.2-4.32-3.36-.56-7.42.67-10.18-2.56.21-.25.48-.4.8-.45,2.08.1,4.17.2,6.25.3,2.42,1.2,6.27,2.23,6.52-.7.43-5.07,2.7-9.46,3.5-14.29,5.57-5.86,11.82-10.66,19.87-12.64,6.64.7,13.28,1.4,19.92,2.1Zm-25.83,4.49c.13-.14.27-.28.4-.42-.14.13-.28.27-.43.4l-1,.99c-.83.01-1.57.2-2,1.01-.25.36-.5.72-.75,1.07.13.08.26.17.38.25.13-.44.26-.87.39-1.31.83,0,1.57-.2,2-1,.33-.33.66-.66,1-1Zm-8.02,9.97c-3.36,1.85-2.97,4.83-2.29,7.9.77-2.62,1.54-5.25,2.31-7.87,1.78-1.03,2.73-2.42,2.41-4.85-2.25,1.24-2.41,3-2.44,4.82Zm11.26-11.36c.04-.42-.15-.51-.54-.23-.04.03.06.24.1.36.15-.04.29-.08.44-.13Z"/>
          <path class="cls-8" d="m99.02,205.14c-2.08-.1-4.17-.2-6.25-.3,1.6-8.93,3.31-17.83,7.97-25.82,3.85-6.62,7.82-7.58,14.1-3.37-7.64,1.8-8.97,8.33-10.82,14.45-2.47,4.75-2.22,10.4-5,15.05Z"/>
          <path class="cls-16" d="m91.97,205.28c2.75,3.23,6.82,2,10.18,2.56,11,1.85,22.13,2.91,33.2,4.32.58.07,1.1.61,1.65.93,1.61,4.59.77,9.37,1.14,14.06-.32.37-.63.74-.95,1.11-1.07-.74-2.13-1.48-3.2-2.21.04-1-.03-2.01.16-2.98.21-1.09,1.09-2.15-.09-3.19-.74-.65-1.49-.59-2.23-.02-1.11.84-2,1.81-1.66,3.34.22.96.54,1.9.82,2.85-1,1.47-2.55.86-3.9,1.03-.14-.29-.27-.59-.38-.89,3.07-12.87,3.05-12.71-10.39-14.22-8.67-.98-17.26-2.67-26.01-2.97.05-1.46.24-2.87,1.66-3.72Z"/>
          <path class="cls-16" d="m104.02,190.09c1.85-6.13,3.17-12.65,10.82-14.45,4.7.62,9.39,1.24,14.08,1.87-8.05,1.98-14.3,6.78-19.87,12.64-1.68-.02-3.35-.04-5.03-.05Z"/>
          <path class="cls-17" d="m173.03,261.81c-.04-7.54-.22-15.06-.87-22.59-.29-3.36,0-7.73,5.62-7.09-.57,4.3-1.15,8.59-.72,12.94.05,2.42-1.05,4.98.83,7.19-.01,1.66.44,3.07,2.12,3.78-2.29,1.97-4.18,4.41-6.98,5.76Z"/>
          <path class="cls-11" d="m102.85,216.06c-4.12-1.17-8.36-.99-12.57-1.21-.05-.55-.11-1.1-.16-1.64,4.13,1.45,8.42.64,12.63.89.03.65.07,1.3.1,1.96Z"/>
          <path class="cls-9" d="m124.01,323.07c-.08,2.45-1.93,4.86-6.26,4.94-4.16.08-6.68-2.43-6.75-6.75-.06-3.26,3.26-6.99,6.34-7.12,3.18-.13,6.65,3.66,6.67,8.93Z"/>
          <path class="cls-9" d="m247.95,321.37c.05,4.22-2.14,6.54-6.26,6.64-4.42.11-6.72-2.23-6.78-6.63-.06-4.36,2.73-6.35,6.3-7.13,3.08-.67,6.7,3.48,6.74,7.12Z"/>
          <path class="cls-9" d="m181.4,328.01c-4.17-.02-6.41-2.26-6.43-6.44-.02-3.68,3.36-7.51,6.56-7.45,3.24.06,6.52,3.92,6.45,7.57-.08,4.16-2.34,6.33-6.58,6.32Z"/>
          <path class="cls-9" d="m57.46,328.02c-3.91-.04-6.46-2.62-6.45-6.54.01-3.64,3.56-7.5,6.74-7.34,2.83.15,7.19,4.63,7.17,7.38-.03,3.18-3.87,6.53-7.46,6.49Z"/>
          <path class="cls-13" d="m133.98,226.05c1.07.74,2.13,1.48,3.2,2.21-.28.6-.55,1.21-.83,1.82-6.52,1.73-8.88,8.59-14.35,11.66-.83.47-2.37,1.58-1.33,2.72,1.23,1.35,2.4-.1,3.31-.99,3.69-3.6,7.32-7.27,11.02-10.87.92-.89,2.1-2.3,3.33-.94,1.05,1.16-.51,2.06-1.28,2.77-3.03,2.82-6.2,5.5-9.22,8.34-.8.75-2.6,1.75-.68,3.05,3.51,2.38,12.06,1.22,15.25-1.77,3.9-3.64,7.2-7.79,10.58-11.88,2.32.36,4.64.71,6.95,1.07-2.56,6.68-9.77,9.45-13.39,15.46,4.88,1.06,9.4,2.03,13.91,3.03,5.76,1.27,6.01,1.08,6.58-4.78.06-.6.5-1.17.77-1.76.24,9.2.18,9.49-8.14,7.73-15.24-3.24-30.68-5.19-46-7.88-.57-.1-1.06-.64-1.58-.97,5.78-4.28,9.45-10.42,13.98-15.8l1.02-1.18c1.35-.17,2.9.44,3.9-1.03,1,0,2,0,3,0Z"/>
          <path class="cls-11" d="m167.82,245.19c-.27.58-.71,1.15-.77,1.76-.57,5.86-.81,6.05-6.58,4.78-4.51-.99-9.03-1.97-13.91-3.03,3.62-6.01,10.84-8.79,13.39-15.46,2.65.31,5.3.61,7.95.92l-.09,11.03Z"/>
          <path class="cls-16" d="m126.07,228.26c-4.53,5.39-8.2,11.52-13.98,15.8-.07-.36-.15-.72-.22-1.09-1.42-4.89-2.77-9.81-4.29-14.67-.8-2.55-.3-3.31,2.47-2.77,5.31,1.05,10.68,1.83,16.02,2.73Z"/>
          <path class="cls-11" d="m177.89,252.26c-1.87-2.21-.77-4.77-.83-7.19,1.4-.06,1.98-1.09,2.46-2.17,2.5-5.59,4.97-11.2,7.45-16.8.59-1.27,1.57-1.96,2.98-2.01-1.05,6.62-4.28,12.49-6.3,18.78-.63,1.95-2.96,3.99-.49,6.26-1.31,1.81-2.99,2.97-5.28,3.13Z"/>
          <path class="cls-16" d="m183.17,249.14c-2.47-2.27-.14-4.31.49-6.26,2.02-6.28,5.25-12.16,6.3-18.78,1.44-1.29,2.85-2.64,4.88-2.96-.27,6.68-2.56,13.16-1.89,19.93,0,0-.3-.16-.29-.16-2.21-5.25.59-10.56-.4-15.94-1.62,7.18-5.15,13.82-5.24,21.34-1.05,1.27-2.1,2.53-3.86,2.82Z"/>
          <path class="cls-16" d="m186.98,226.11c-2.48,5.6-4.96,11.2-7.45,16.8-.48,1.08-1.06,2.11-2.46,2.17-.44-4.35.15-8.65.72-12.94,2.35-3.09,5.78-4.55,9.2-6.02Z"/>
          <path class="cls-17" d="m126.07,228.26c-5.34-.89-10.71-1.68-16.02-2.73-2.77-.55-3.27.22-2.47,2.77,1.52,4.86,2.87,9.78,4.29,14.67-1.56.05-1.78-1.11-2.12-2.25-1.45-4.71-2.99-9.4-4.39-14.13-.73-2.47-.34-3.62,2.87-3.06,6.13,1.06,12.21,2.58,18.48,2.66.11.3.24.6.38.89-.34.39-.68.79-1.02,1.18Z"/>
          <path class="cls-17" d="m167.91,234.16c-2.65-.31-5.3-.61-7.95-.92-2.32-.36-4.64-.71-6.95-1.07-5.57-.55-10.96-2.49-16.65-2.09.28-.61.55-1.21.83-1.82.32-.37.63-.74.95-1.11,6.18,3.17,13.15,2.39,19.68,3.79,2.6.56,5.25,1.66,8.22.48,1.64-.65,3.37.35,1.87,2.73Z"/>
          <path class="cls-11" d="m187.03,246.31c.09-7.52,3.62-14.16,5.24-21.34.98,5.38-1.81,10.68.4,15.94-.5,3.24-3.33,4.04-5.63,5.4Z"/>
          <path class="cls-17" d="m192.95,241.07c-.67-6.77,1.62-13.25,1.89-19.93.41-.5,1.48-.97,1.4-.35-.89,6.79-1.48,13.64-3.29,20.28Z"/>
          <path class="cls-17" d="m102.85,216.06c-.03-.65-.06-1.3-.1-1.96,3.6.48,7.2.96,10.81,1.44-.04.33-.09.66-.13.99-3.53-.16-7.05-.32-10.58-.48Z"/>
          <path class="cls-16" d="m140.92,213.19c1.11-.12,2.24-.31,3.05.77-1.11.12-2.23.25-3.05-.77Z"/>
          <path class="cls-7" d="m195.1,118.11c-.1-5.98-.1-11.96-.33-17.94-.1-2.57,1.08-3,3.29-2.99,15.97.06,31.93.07,47.9-.01,2.33-.01,3.19.61,3.18,3.05-.09,16.13-.08,32.26,0,48.39.01,2.34-.75,3.29-3.15,3.23-6.31-.16-12.63-.16-18.94-.22-.44-1.95-2.08-2.92-3.43-4.1-4.24-3.69-8.52-7.32-12.75-11.01-6.15-5.36-10.69-12.11-15.76-18.4Zm50.83-1.33s-.01,0-.02,0c0-3.15.13-6.31-.04-9.46-.12-2.19-.72-4.52-3.25-5.03-5.68-1.13-11.41-2.08-17.17-.43-1.18.34-2.95-.15-3.28,1.62-.3,1.61,1.11,2.19,2.24,2.92,4.39,2.82,7.73,6.66,10.43,11.07,1.55,2.54,3.08,5.1,4.61,7.65,1.09,1.81,1.88,4.42,4.58,3.68,2.82-.77,1.76-3.54,1.88-5.56.13-2.15.03-4.31.03-6.47Z"/>
          <path class="cls-2" d="m195.1,118.11c5.07,6.29,9.61,13.04,15.76,18.4,4.23,3.69,8.51,7.33,12.75,11.01,1.35,1.18,2.99,2.14,3.43,4.1-9.61.08-19.22.13-28.83.26-2.13.03-3.47-.4-3.43-2.96.17-10.27.23-20.54.33-30.81Z"/>
          <path class="cls-7" d="m107.71,98.15c.03,17.33.06,34.65.09,51.98-.25.35-.49.7-.74,1.05-6.97,1.35-13.99.47-20.98.47-.43-.68-.72-1.52-1.3-2.01-9.13-7.6-18.08-15.35-25.6-24.66-1.69-2.09-2.53-5.17-5.66-5.94-.03-6.95-.06-13.9-.09-20.84.52-.29,1.05-.58,1.57-.87,17.33.03,34.66.06,51.99.09.24.24.48.48.72.72Zm-4.73,18.74c0-3.15.07-6.3-.03-9.44-.06-2.05-.64-4.5-2.7-4.89-6.12-1.16-12.31-2.62-18.56-.5-.97.33-2.02.59-2.28,1.65-.35,1.44.83,2,1.86,2.55,4.86,2.59,7.98,6.82,10.75,11.38,2.05,3.39,4.04,6.82,6.21,10.12.67,1.02,1.61,2.38,3.18,1.87,1.52-.49,1.57-1.95,1.58-3.31,0-3.15,0-6.29,0-9.44Z"/>
          <path class="cls-2" d="m53.51,119.05c3.13.77,3.98,3.85,5.66,5.94,7.51,9.31,16.46,17.06,25.6,24.66.59.49.87,1.33,1.3,2.01-9.81.07-19.63.11-29.44.24-2.46.03-3.68-.74-3.61-3.43.24-9.81.34-19.61.49-29.42Z"/>
          <path class="cls-2" d="m55,97.33c-.52.29-1.05.58-1.57.87.14-.99.77-1.08,1.57-.87Z"/>
          <path class="cls-2" d="m107.71,98.15c-.24-.24-.48-.48-.72-.72.65-.17.89.07.72.72Z"/>
          <path class="cls-2" d="m107.06,151.18c.25-.35.49-.7.74-1.05.2.67-.08,1-.74,1.05Z"/>
          <path class="cls-7" d="m125.02,124.11c-1.41-7.76-.46-15.59-.75-23.38-.09-2.38.55-3.65,3.34-3.63,16.15.1,32.31.08,48.46.02,2.12,0,2.93.64,2.92,2.85-.07,16.32-.07,32.64,0,48.95,0,2.21-.89,2.93-2.97,2.9-7.65-.12-15.31-.16-22.96-.23-.38-.5-.68-1.1-1.16-1.49-9.76-7.83-18.61-16.61-26.88-25.99Zm50.93-7.63s-.01,0-.02,0c0-2.99.07-5.98-.03-8.96-.07-2.05-.58-4.45-2.64-4.96-6.11-1.54-12.35-2.44-18.58-.47-3.18,1.01-3.2,2.27-.5,4.25,2.22,1.63,4.43,3.26,6.32,5.46,3.72,4.32,6.43,9.22,9.32,14.04.95,1.58,1.85,3.47,4.03,3.06,2.42-.45,2.07-2.65,2.09-4.45.03-2.66,0-5.31,0-7.97Z"/>
          <path class="cls-2" d="m125.02,124.11c8.26,9.38,17.11,18.16,26.88,25.99.48.38.78.99,1.16,1.49-8.44.09-16.88.17-25.32.29-1.85.03-3.51-.32-3.44-2.54.27-8.41-1-16.87.72-25.23Z"/>
          <path class="cls-16" d="m182.19,201.1c.26-4.15,1.36-8.08,3.15-11.82,1.15-2.4,2.79-4.07,5.68-3.95-1.01,4.59-2.03,9.18-3.04,13.77-.34.66-.68,1.32-1.02,1.98-1.59,0-3.18.01-4.77.02Z"/>
          <path class="cls-11" d="m187.98,199.1c1.01-4.59,2.03-9.18,3.04-13.77,1.42-.3,2.85-.68,3.94.74-.68,5.01-1.36,10.01-2.04,15.02-1.65-.66-3.29-1.33-4.94-1.99Z"/>
          <path class="cls-11" d="m182.19,201.1c1.59,0,3.18-.01,4.77-.02-.62,2.3-2.27,4.45-.99,7.01q-3.84,2.3-4.04-3.07c.09-1.31.18-2.62.27-3.93Z"/>
          <path class="cls-11" d="m175.72,201.85c-1.73.11-1.89-1.07-1.6-2.25,1-4.06,1.59-8.28,4.58-12.23.14,1.24.22,1.99.3,2.75,0,0,0-.01,0-.01-1.51,1.71-2.01,3.77-2.05,5.98,0,0,.01-.01.01-.01-1.45,1.08-.91,2.61-.93,4.02-.1.59-.21,1.17-.31,1.76Z"/>
          <path class="cls-8" d="m176.95,196.08c.04-2.21.53-4.27,2.05-5.98.05,2.24-.09,4.42-2.05,5.98Z"/>
          <path class="cls-8" d="m176.03,200.09c.02-1.41-.52-2.95.93-4.02-.07,1.4.47,2.93-.93,4.02Z"/>
          <path class="cls-11" d="m167.07,212.01c-3.48-.02-6.92.3-10.4-.71-2-.58-2.87-1.35-2.72-3.34.76-2.56,2.8-4.8,1.99-7.76.02-1.46.65-2.52,2.02-3.11,2.2.48,4.35,1.1,6.68,1.07,2.46-.03,4.52.85,4.36,3.94-.64,3.3-1.28,6.6-1.93,9.91Z"/>
          <path class="cls-8" d="m155.94,200.2c.81,2.97-1.23,5.2-1.99,7.76-2.13,1.57-4.13,3.65-7.08,3.05-2.12-.43-1.27-1.29.03-1.93.36-.35.72-.71,1.08-1.06,0,0-.06.06-.06.06.35-.35.7-.7,1.05-1.05,0,0-.05.02-.05.02,3.05-.86,3.77-3.23,2.5-5.56-1.32-2.44-3.16-1.46-4.44.55-.64.72-1.28,1.45-1.92,2.17-.75-6.04,1.94-12.68-3.15-17.96.8-.17,1.72-.14,2.06-1.14h0c3.45.79,2.75,3.75,3.2,6.11-.06,1.48-.1,2.96-.18,4.44-.12,2.32.17,4.19,3.22,2.79,2.46-1.13,4.01.55,5.73,1.76Z"/>
          <path class="cls-13" d="m185.97,208.09c-1.28-2.57.37-4.72.99-7.01.34-.66.68-1.32,1.02-1.98,1.65.66,3.3,1.33,4.94,1.99-.8,3.84-2.75,6.54-6.95,7Z"/>
          <path class="cls-8" d="m122.83,206.22c-3.17-2.59-5.56-5.2-3.56-9.94,1.7-4.03,3.84-4.14,6.61-1.65,2.34,2.1,2.93.83,3.54-1.29.51-1.74.99-3.52,1.78-5.14,2.38-4.89,6.43-6.82,11.76-6.21.34,1.04.68,2.08,1.01,3.12,0,0,0,0,0,0-2.06-1.47-4.14-2.99-6.71-1.05-1.87,1.42-.34,1.73.75,2.16-1.5,1.49-3.93,2.21-4.04,4.85-3.83,3.14-4.41,7.63-5.05,12.11-.64-1.06-1.28-2.13-1.92-3.19-1.1-1.92-2.77-2.46-4.61-1.37-2.26,1.34-.91,3.12-.28,4.79.34.9.5,1.88.74,2.82Z"/>
          <path class="cls-11" d="m142,207.04c-.15.78-.03,1.87-.5,2.28-1.48,1.28-10.1-.64-11.48-2.4,1.96-.23,3.42-1.13,2.17-3.18-1.97-3.23-1.06-5.92.86-8.63.56.27,1.13.54,1.69.81.5,1.91-.32,4.63,2.72,5.05,2.89.4,4-1.63,4.74-3.96l1.62.1c.58,2.69-.29,4.6-2.72,6.08-3.15,1.92-1.94,3.16.91,3.85Z"/>
          <path class="cls-11" d="m104.02,190.09c1.68.02,3.35.04,5.03.05-.8,4.83-3.07,9.22-3.5,14.29-.25,2.93-4.1,1.9-6.52.7,2.78-4.65,2.53-10.3,5-15.05Z"/>
          <path class="cls-17" d="m142,207.04c-2.85-.69-4.06-1.94-.91-3.85,2.44-1.48,3.3-3.39,2.72-6.08.23-3.4-.08-6.88-3.31-8.64-2.79-1.52-4.09,1.96-6.21,2.91l-.33-.3c.11-2.64,2.54-3.36,4.04-4.85,1.3.01,2.6.02,3.91.03,5.09,5.28,2.4,11.92,3.15,17.96-.34,1.68-1.32,2.66-3.06,2.83Z"/>
          <path class="cls-17" d="m133.05,195.11c-1.92,2.71-2.84,5.4-.86,8.63,1.26,2.05-.21,2.95-2.17,3.18-1.2-1-.93-2.44-1.1-3.74.64-4.47,1.22-8.97,5.05-12.11,0,0,.33.3.32.3-.42,1.25-.83,2.49-1.24,3.74Z"/>
          <path class="cls-17" d="m122.83,206.22c-.24-.94-.4-1.91-.74-2.82-.63-1.67-1.98-3.45.28-4.79,1.85-1.09,3.51-.55,4.61,1.37-7.41-.24-2.22,3.8-2.08,6.13-.68.03-1.35.06-2.03.08l-.05.02Z"/>
          <path class="cls-17" d="m146.98,202.03c1.27-2.01,3.11-2.99,4.44-.55,1.27,2.34.55,4.7-2.5,5.56-.21-1.84,3.68-5.26-1.93-5.01Z"/>
          <path class="cls-11" d="m115.01,194.09c-.77,2.62-1.54,5.25-2.31,7.87-.69-3.07-1.08-6.05,2.29-7.9l.03.02Z"/>
          <path class="cls-11" d="m114.98,194.07c.02-1.82.18-3.58,2.44-4.82.32,2.42-.63,3.82-2.41,4.85,0,0-.03-.02-.03-.02Z"/>
          <path class="cls-8" d="m122.88,206.19c.68-.03,1.35-.06,2.03-.08.77.49,1.39,1.59.65,1.94-1.52.73-2.33-.43-2.68-1.86Z"/>
          <path class="cls-11" d="m122,185.1c-.43.8-1.17.99-2,1l-.02-.02c.43-.81,1.17-.99,2-1.01l.02.02Z"/>
          <path class="cls-11" d="m120,186.1c-.13.44-.26.87-.39,1.31-.13-.08-.26-.17-.38-.25.25-.36.5-.72.75-1.07,0,0,.02.02.02.02Z"/>
          <path class="cls-11" d="m126.23,182.71c-.15.04-.29.08-.44.13-.04-.12-.13-.34-.1-.36.39-.28.57-.19.54.23Z"/>
          <path class="cls-17" d="m148.96,207.02c-.35.35-.7.7-1.05,1.05.35-.35.7-.7,1.05-1.05Z"/>
          <path class="cls-17" d="m147.98,208.02c-.36.35-.72.71-1.08,1.06.36-.35.72-.71,1.08-1.06Z"/>
          <path class="cls-11" d="m122.98,184.08c.14-.13.28-.27.43-.4-.13.14-.27.28-.4.42,0,0-.02-.02-.02-.02Z"/>
          <path class="cls-11" d="m121.98,185.08c.33-.33.67-.66,1-.99,0,0,.02.02.02.02-.33.33-.66.66-1,1,0,0-.02-.02-.02-.02Z"/>
          <path class="cls-8" d="m133.98,226.05c-1,0-2,0-3,0-.28-.95-.6-1.89-.82-2.85-.35-1.54.55-2.5,1.66-3.34.75-.57,1.5-.63,2.23.02,1.18,1.04.3,2.1.09,3.19-.19.97-.12,1.98-.16,2.98Z"/>
          <path class="cls-16" d="m136.35,230.08c5.69-.4,11.08,1.54,16.65,2.09-3.38,4.09-6.69,8.24-10.58,11.88-3.2,2.99-11.74,4.15-15.25,1.77-1.92-1.3-.12-2.3.68-3.05,3.02-2.84,6.18-5.52,9.22-8.34.77-.71,2.33-1.62,1.28-2.77-1.23-1.36-2.42.05-3.33.94-3.7,3.6-7.33,7.26-11.02,10.87-.92.89-2.08,2.34-3.31.99-1.04-1.14.5-2.25,1.33-2.72,5.47-3.06,7.83-9.93,14.35-11.66Z"/>
          <path class="cls-1" d="m245.92,116.79c0,2.16.1,4.32-.03,6.47-.12,2.02.94,4.79-1.88,5.56-2.69.74-3.49-1.87-4.58-3.68-1.53-2.55-3.06-5.11-4.61-7.65-2.7-4.42-6.03-8.25-10.43-11.07-1.13-.73-2.53-1.31-2.24-2.92.33-1.77,2.1-1.29,3.28-1.62,5.76-1.65,11.49-.7,17.17.43,2.53.51,3.13,2.84,3.25,5.03.17,3.14.04,6.3.04,9.46,0,0,.01,0,.02,0Z"/>
          <path class="cls-1" d="m102.99,116.89c0,3.15,0,6.29,0,9.44,0,1.36-.05,2.82-1.58,3.31-1.57.5-2.51-.86-3.18-1.87-2.18-3.3-4.16-6.73-6.21-10.12-2.77-4.57-5.89-8.79-10.75-11.38-1.03-.55-2.21-1.11-1.86-2.55.26-1.06,1.31-1.32,2.28-1.65,6.25-2.12,12.44-.67,18.56.5,2.06.39,2.64,2.84,2.7,4.89.1,3.14.03,6.29.03,9.44Z"/>
          <path class="cls-1" d="m175.96,116.48c0,2.66.02,5.31,0,7.97-.02,1.8.33,4-2.09,4.45-2.18.41-3.08-1.48-4.03-3.06-2.89-4.82-5.6-9.71-9.32-14.04-1.89-2.19-4.1-3.82-6.32-5.46-2.7-1.99-2.68-3.25.5-4.25,6.23-1.98,12.47-1.07,18.58.47,2.05.52,2.57,2.92,2.64,4.96.1,2.98.03,5.98.03,8.96,0,0,.01,0,.02,0Z"/>
          <path class="cls-13" d="m141.91,186.24c-1.3-.01-2.6-.02-3.91-.03-1.09-.43-2.62-.74-.75-2.16,2.57-1.95,4.65-.43,6.71,1.05-.34,1.01-1.25.98-2.06,1.14Z"/>
          <path class="cls-17" d="m142.2,197c-.74,2.33-1.85,4.36-4.74,3.96-3.04-.42-2.21-3.14-2.72-5.04.75-1.97,1.96-3.5,4.26-3.19,2.34.32,3.01,2.19,3.19,4.27Z"/>
          <path class="cls-16" d="m142.2,197c-.19-2.08-.85-3.95-3.19-4.27-2.3-.32-3.52,1.22-4.26,3.19-.56-.27-1.13-.54-1.69-.81.41-1.25.82-2.5,1.24-3.74,2.12-.94,3.42-4.43,6.22-2.9,3.23,1.76,3.54,5.24,3.31,8.64-.54-.03-1.08-.07-1.62-.1Z"/>
        </g>
        <g>
          <circle class="cls-10" cx="152.42" cy="44.49" r="42.49" transform="translate(13.18 120.8) rotate(-45)"/>
          <path class="cls-5" d="m152.42,4c22.36,0,40.49,18.13,40.49,40.49s-18.13,40.49-40.49,40.49-40.49-18.13-40.49-40.49S130.05,4,152.42,4m0-4c-24.53,0-44.49,19.96-44.49,44.49s19.96,44.49,44.49,44.49,44.49-19.96,44.49-44.49S176.95,0,152.42,0h0Z"/>
        </g>
      </g>
      <text class="cls-18" transform="translate(128.91 55.83)"><tspan x="0" y="0">#2</tspan></text>
    </g>
  </g>
</svg>