<?xml version="1.0" encoding="UTF-8"?>
<svg id="Layer_2" data-name="Layer 2" xmlns="http://www.w3.org/2000/svg" xmlns:xlink="http://www.w3.org/1999/xlink" viewBox="0 0 283.4 351.21">
  <defs>
    <style>
      .cls-1 {
        fill: #eec6c6;
      }

      .cls-1, .cls-2, .cls-3, .cls-4, .cls-5, .cls-6, .cls-7, .cls-8, .cls-9, .cls-10, .cls-11, .cls-12, .cls-13, .cls-14 {
        stroke-width: 0px;
      }

      .cls-2 {
        fill: #df4343;
      }

      .cls-3 {
        fill: #b9e2e7;
      }

      .cls-4 {
        fill: #090807;
      }

      .cls-5 {
        fill: none;
      }

      .cls-15 {
        clip-path: url(#clippath-1);
      }

      .cls-6 {
        fill: #2c2a24;
      }

      .cls-7 {
        fill: #535044;
      }

      .cls-8 {
        fill: #92d5de;
      }

      .cls-9 {
        fill: #bcbcbc;
      }

      .cls-16 {
        clip-path: url(#clippath);
      }

      .cls-10 {
        fill: #b53232;
      }

      .cls-11 {
        fill: #e8f8fa;
      }

      .cls-12 {
        fill: #0a0a09;
      }

      .cls-13 {
        fill: #dc4343;
      }

      .cls-14 {
        fill: #dc4444;
      }
    </style>
    <clipPath id="clippath">
      <rect class="cls-5" width="283.4" height="351.21"/>
    </clipPath>
    <clipPath id="clippath-1">
      <rect class="cls-5" x="-.15" y="62.86" width="283.76" height="289.31"/>
    </clipPath>
  </defs>
  <g id="Layer_2-2" data-name="Layer 2">
    <g class="cls-16">
      <g class="cls-15">
        <g id="Layer_1-2" data-name="Layer 1-2">
          <g>
            <path class="cls-4" d="m.81,263.42c-.29-3.29,1.12-4.91,4.22-4.86,1.01.02,2.02.15,3.03.23,2.12.18,3.52-.42,3.23-2.92-.07-.63,0-1.27,0-1.9,0-43.82-.03-87.65.05-131.47,0-3.58-.76-6.04-4.02-8.21-5.31-3.53-4.66-10.3.93-13.83,4.7-2.97,10.19-2.94,15.41-3.68,20.54-2.93,41.17-3.95,61.88-1.71,7.58.83,15.06,2.24,22.31,4.66,5.58,1.86,6.64,6.58,2.39,10.73-2.38,2.32-5.16,4.14-8.3,5.25-2.38.83-3.25,2.21-3.24,4.79.06,18.92-.03,37.85-.09,56.77,0,1.33.08,2.93,1.66,2.91,2.28-.02,4.92.85,6.71-1.45,1.24-1.6,2.24-3.39,3.55-4.92,4.03-4.72,9.21-6.98,15.41-6.98,20.08.02,40.15-.07,60.23.08,3.26.02,4.51-.7,4.28-4.18-.32-4.8-.18-9.65-.03-14.47.06-2.19-.43-3.45-2.88-3.24-2.59.21-3.69-1.08-3.66-3.62.05-4.32.04-8.64,0-12.95-.02-2.37.8-4.05,3.44-3.95,2.19.09,3.04-1.05,3.81-2.89,4.29-10.26,1.81-8.92,13.6-9,5.21-.03,10.43.2,15.63-.08,3.85-.2,6.03,1.2,6.82,4.95.26,1.23.94,2.36,1.23,3.59.52,2.19,1.35,3.75,4.06,3.43,1.84-.22,2.87.85,2.88,2.71.03,4.82.02,9.66,0,14.48-.02,2.74-1.84,3.49-4.1,3.3-2.48-.2-2.95.96-2.9,3.14.12,5.33.08,10.67.02,16-.02,1.77.24,2.65,2.43,2.8,9.69.64,16.29,5.87,19.94,14.67,5.32,12.8,7.37,26.29,7.93,40.07.38,9.53-.32,19-1.21,28.47-.81,8.75-6.02,14.84-12.51,20.09-1.16.94-2.34,1.85-3.73,2.94,1.76,1.32,3.56,1.12,5.24,1.19,8.21.32,14.39,3.86,18.95,10.83,4.45,6.79,9.09,13.45,12.83,20.66,2.98,5.75,3.36,12.17,3.88,18.46.24,2.82-1.71,4.84-4.74,4.88-8.76.11-17.7,1.09-26.24-.3-5.64-.92-5.67,1.99-6.8,5.08-3.89,10.56-13.56,17.61-24.64,17.91-10.85.29-20.68-5.82-25.03-16.02-1.27-2.98-2.83-4.2-5.96-3.58-.98.19-2.06.2-3.04,0-2.96-.62-4.18.82-5.33,3.4-6.97,15.72-26.08,21.06-39.91,11.3-4.38-3.09-7.5-7.22-9.44-12.15-.86-2.19-2.11-2.97-4.28-2.65-.12.02-.26.02-.38,0-7.26-1.03-12.42,1.8-18,6.79-16.37,14.63-35.78,16.88-55.32,7.91-19.26-8.85-29.67-24.76-30.02-46.47-.1-6.09.62-6.03-5.77-6.63-4.78-.45-9.49-1.61-14.24-2.35-1.86-.29-2.45-1.13-2.41-3.01.15-6.22.13-12.44.17-18.66,4.45.02,5.08.63,5.1,5,.02,3.3.17,6.61-.05,9.89-.16,2.39.8,3.58,3.01,3.9,4.11.59,8.23,1.25,12.36,1.64,3.22.31,3.47-2.13,3.76-4.53.34-2.72-1.03-3.26-3.34-3.1-1.9.13-3.81,0-5.71.03-2.74.03-4.19-.95-4.03-4.04.22-4.17,0-8.37.07-12.56.04-2.26-.93-3.32-3.2-3.14-2.64.21-5.27.41-7.91.63l.04-.04ZM195.69,123.25c-1.11,1.86.55,1.45,1.31,1.46,2.87.05,5.74-.02,8.61-.04,3.87-.02,7.75-.04,11.61-.05,1.59-.54,4.66,2.11,4.58-2.02-.05-2.67.86-6.25-4.01-5.44-4.02.05-8.05.08-12.07.13-8.4-.44-8.97-.09-10.02,5.96h0Zm23.58,43.72c1.04.47,2.11.33,3.18.14,1.95.18,1.54-1.32,1.53-2.32-.03-5.45-.14-10.9-.22-16.35.1-.24.1-.49,0-.73.41-2.05-.1-4.2.73-6.19,1.17-1.09,2.62-.62,3.97-.72.74-.05,1.52.09,2.06-.62.67-.86.45-10.25-.33-11.07-.47-.5-1.14-.44-1.76-.22-1.79-.26-3.57-.41-5.35.05-8.38-.47-16.75-.39-25.13-.07-2.28-.05-4.56-.05-6.84-.19-2.12-.14-3.38.83-2.96,2.83.64,3.08-2.1,6.87,1.85,9.25.1.06.25.05.37.03,4.06-.44,4.53,2.06,4.49,5.25-.08,6.09,0,12.18-.04,18.27,0,1.92.47,3.2,2.74,3.15,6.72-.12,13.44-.17,20.15-.24.51-.08,1.02-.15,1.53-.23h.02Zm-60.9,146.03h19.75c12.89.48,25.82-.68,38.69.83,2.16.25,3.95-.24,3.99-2.78.05-2.61-2.07-2.42-3.83-2.5-1.14-.05-2.29.07-3.42-.02-6.08-.5-12.12,1.23-18.13.63-13.4-1.32-26.8-.32-40.2-.69-1.28-.04-2.26.25-2.26,1.83,0,1.41.33,2.57,1.98,2.69,1.13.08,2.28,0,3.42,0h0Zm14.14,3.49c-2.13-.66-4.33-.28-6.49-.31-5.64-.43-11.44.93-16.87-1.58,0-2.03.02-4.05.03-6.08.57-2.97,2.77-3.71,5.35-3.77,2.78-.07,5.57-.02,8.36-.02-3.3-1.75-6.45-2.58-10.2-1.76-12.81,2.81-20.15,12.38-18.72,25.27.96,8.64,9.84,19.22,23.25,18.53,13.37-.69,23.98-14.77,20.07-27.61-.74-2.43-2.09-3.75-4.78-2.67v-.02Zm36.15.41c-2.23-.7-4.45-.91-6.61.24-3.01-1.06-4.31.6-4.73,3.21-2.97,18.94,14.24,29.26,26.51,26.34,9.63-2.29,18.68-13.59,17.61-22.91-1.32-11.51-9.31-19.86-20.93-21.16-3.66-.41-7.61.13-11.35,3.54,3.3,0,5.8.44,8.05-.11,2.92-.7,5.18,0,7.37,1.7-.06,2.03-.68,4.08.09,6.11-1.33,2.29-3.36,3.09-5.95,3.03-3.36-.08-6.71,0-10.07.02h0Zm-102.22-80.86c.26-1.62.74-3.23.74-4.86.06-14.22,0-28.44.06-42.66.02-3.06-1.19-4.4-4.3-4.32-3.85.11-4.79,1.02-4.8,5.52-.02,14.1,0,28.19-.02,42.29,0,1.4-.1,2.81.79,4.02-.37,5.43.56,10.9-.55,16.3-.15.7.07,1.32.65,1.65,2.42,1.41,4.48,3.49,7.42,4.43v-22.38h0Zm162.49,88.41c1.76,1.07,3.71.58,5.58.65,2.42.08,3.33-.4,3.08-3.51-.75-9.15-4.14-17.1-9.41-24.41-2.26-3.12-3.68-6.87-6.92-9.25l.02.02c-2.57-6.25-10.02-10.5-16.03-9.18-.85.18-1.44.45-1.45,1.37,0,3.91-.34,7.86.15,11.71.3,2.35,3.64,1.79,5.08,3.38.41.46.99.76,1.49,1.15,1.28,2.39,1.71,4.92,1.65,7.63-.11,5.93.02,11.85-.06,17.78-.03,2.07.72,3.07,2.83,3,4.66-.15,9.34.34,13.98-.33h0ZM54.67,98.21c-12.94.73-25.86,1.77-38.61,4.24-3.16.61-6.68.71-7.82,4.71-.14,4.32.7,5.41,4.73,5.41,27.78.04,55.55.1,83.33-.06,3.75-.02,7.37-1.48,9.57-5.03,1.22-.26,2.3-.86,2.12-2.21-.18-1.3-1.53-1.49-2.61-1.82-11.08-3.4-22.52-4.46-34-5.25h-16.7Zm192.34,87.56c-.57-1.28-1.15-2.56-1.73-3.84-1.02-5.55-4.94-8.41-9.89-9.83-6.19-1.79-12.62-.5-18.94-.75-2.12-.08-1.7,1.24-1.12,2.57,7.3,16.94,8.82,34.89,9.33,53.02-.67,2.07-.74,4.19-.78,6.35-.16,7.94-1.21,15.78-2.7,23.58-.97,5.08-3.87,7.75-8.89,8.3-32.17,0-64.33,0-96.5-.02-.65.17-2.08-.75-1.71.87.96,4.22,6.37,8.17,10.94,8.17,31.59,0,63.16-.24,94.74.16,8.5.11,15.72-2.1,22.03-7.31,4.75-3.92,10.06-7.94,10.92-14.55,1.1-8.48,2.27-17.02,1.61-25.64.5-9.38-.73-18.6-2.68-27.73-.98-4.62-1.74-9.38-4.63-13.37h0Zm-183.99,63.56c9.11-1.21,18.16-1.53,27.09,1.24,4.25,1.32,4.27,1.29,4.27-3.2v-125.67c0-5.02-.09-5.13-5.11-5.13-22.85,0-45.69,0-68.54,0-.76,0-1.53-.03-2.29.05-1.69.17-2.77.79-2.74,2.84.14,9.14.15,18.27.21,27.41-.06,1.51-.18,3.04-.18,4.55,0,39.97,0,79.93,0,119.89,0,6.6,0,6.64,6.42,7.3,3.59.37,6.54-.61,7.94-4.34.58-1.55,1.41-2.94,2.4-4.29,7.75-10.48,17.96-17.28,30.52-20.64Zm156.36-12.44c1.07-1.19.68-2.65.68-4,.03-8.73.33-17.46-.67-26.19-1.25-10.86-3.76-21.34-7.79-31.49-1.12-2.83-2.98-3.98-6.11-3.97-26.89.09-53.79.06-80.68.03-2.36,0-4.51.43-6.35,1.99-5.21,2.41-7.68,6.09-7.61,12.21.28,23.72.18,47.44.04,71.17-.02,3.52,1.02,4.56,4.53,4.54,21.19-.15,42.39-.07,63.58-.07,10.41,0,20.81.02,31.22,0,5.08-.02,6.51-.99,7.3-5.78,1-6.09,2.26-12.2,1.85-18.44h0Zm-37.79,41.14h-18.29c-12.45,0-24.9.02-37.35-.02-2.88,0-4.03.81-2.85,3.88,1.03,2.7,1.95,5.53,2.31,8.37.33,2.61,1.6,3.01,3.79,3.01,35.7-.04,71.39-.05,107.09.02,2.58,0,3.78-.78,3.62-3.49-.14-2.4-.16-4.83,0-7.23.24-3.41-1.01-4.65-4.6-4.61-17.91.17-35.82.08-53.74.08h0Zm-107.04,68.63c26.73.98,47.15-21.36,47.31-47.32.15-24.07-21.33-46.77-46.37-46.65-26.5.12-47.99,19.29-48.07,46.69-.08,27.4,19.89,47.7,47.12,47.29h0Z"/>
            <path class="cls-7" d="m.81,263.42c2.64-.21,5.27-.41,7.91-.63,2.27-.18,3.23.88,3.2,3.14-.07,4.19.15,8.39-.07,12.56-.16,3.1,1.28,4.08,4.03,4.04,1.9-.02,3.82.1,5.71-.03,2.31-.15,3.67.37,3.34,3.1-.29,2.4-.55,4.83-3.76,4.53-4.14-.39-8.24-1.05-12.36-1.64-2.22-.32-3.17-1.5-3.01-3.9.21-3.29.07-6.6.05-9.89-.02-4.37-.66-4.98-5.1-5,.03-2.1.05-4.19.08-6.29l-.02.02Z"/>
            <path class="cls-2" d="m118.46,173.28c1.84-1.56,3.98-1.99,6.35-1.99,26.89.03,53.79.05,80.68-.03,3.13,0,4.99,1.14,6.11,3.97,4.04,10.15,6.54,20.63,7.79,31.49,1,8.73.7,17.45.67,26.19,0,1.35.38,2.81-.68,4-1.35-.9-2.88-.82-4.41-.82-5.7.02-11.42,0-17.13,0-24.1,0-48.2,0-72.3,0-2.5,0-5.25.37-6.12-3.01,0-18.25.02-36.49-.02-54.75,0-1.33.5-2.82-.72-3.95-.08-.36-.16-.72-.24-1.08h.02Zm6.71,3.77c2.17,2.36,4.47,2.47,6.67,2.48,25.02.13,50.04.21,75.05.31,1.17,0,2.46.1,2.89-1.24.39-1.22-.48-2.19-1.35-2.94-2.06-1.8-4.64-1.89-7.16-1.94-17.26-.34-34.53-.46-51.76.76-7.91.56-15.87.95-24.34,2.57h0Z"/>
            <path class="cls-13" d="m15.92,146.85c-.06-9.14-.08-18.27-.21-27.41-.03-2.05,1.05-2.67,2.74-2.84.76-.08,1.52-.05,2.29-.05h68.54c5.02,0,5.11.11,5.11,5.13v125.67c0,4.5-.02,4.53-4.27,3.2-8.92-2.77-17.98-2.45-27.09-1.24-.96-7.68-3.51-14.96-5.71-22.31-3.73-12.49-8.69-24.51-14.08-36.36,13.95-.06,27.91-.16,41.86-.15,2.65,0,4.2-.34,4.17-3.67-.14-18.77-.11-37.55,0-56.32.02-2.56-.94-3.33-3.33-3.33-20.3.05-40.61.05-60.91,0-2.43,0-3.36.82-3.33,3.32.08,6.97-.04,13.95-.08,20.92-2.71-.5-2.72-4.35-5.67-4.58v.02Z"/>
            <path class="cls-10" d="m43.23,190.65c5.4,11.85,10.35,23.88,14.08,36.36,2.2,7.36,4.76,14.63,5.71,22.31-12.55,3.36-22.77,10.16-30.52,20.64-.99,1.35-1.82,2.74-2.4,4.29-1.4,3.72-4.34,4.7-7.94,4.34-6.44-.67-6.42-.7-6.42-7.3,0-39.97,0-79.93,0-119.89,0-1.51.11-3.04.18-4.55,2.94.22,2.95,4.07,5.67,4.58.05,11.78.16,23.56.08,35.34-.02,2.81.87,3.79,3.7,3.74,5.95-.11,11.9.08,17.85.15h0Z"/>
            <path class="cls-10" d="m118.46,173.28c.08.36.16.72.24,1.08,0,18.38-.02,36.75,0,55.14,0,1.22-.41,2.57.73,3.57.86,3.39,3.62,3.01,6.12,3.01,24.1.02,48.2,0,72.3,0,5.71,0,11.42,0,17.13,0,1.53,0,3.06-.08,4.41.82.41,6.25-.84,12.35-1.85,18.44-.79,4.79-2.22,5.77-7.3,5.78-10.41.04-20.81,0-31.22,0-21.19,0-42.39-.07-63.58.07-3.52.02-4.56-1.02-4.53-4.54.14-23.73.24-47.45-.04-71.17-.07-6.12,2.4-9.8,7.61-12.21h-.02Z"/>
            <path class="cls-6" d="m212.29,265.18c5.02-.57,7.93-3.23,8.89-8.3,1.49-7.81,2.54-15.64,2.7-23.58.05-2.16.11-4.29.78-6.35,9.89-.02,19.77-.05,29.66-.08.66,8.62-.51,17.16-1.61,25.64-.86,6.61-6.17,10.64-10.92,14.55-6.31,5.21-13.53,7.42-22.03,7.31-31.58-.4-63.16-.16-94.74-.16-4.57,0-9.98-3.95-10.94-8.17-.37-1.62,1.06-.7,1.71-.87,1.06,1.06,2.4.6,3.61.6,29.76.03,59.52.03,89.27,0,1.21,0,2.55.46,3.62-.58h0Z"/>
            <path class="cls-7" d="m181.59,278.03c17.91,0,35.82.09,53.74-.08,3.58-.03,4.82,1.2,4.6,4.61-.16,2.4-.15,4.83,0,7.23.16,2.71-1.05,3.49-3.62,3.49-35.7-.05-71.39-.05-107.09-.02-2.19,0-3.46-.39-3.79-3.01-.36-2.84-1.27-5.67-2.31-8.37-1.18-3.07-.03-3.89,2.85-3.88,12.45.05,24.9.02,37.35.02h18.29,0Z"/>
            <path class="cls-7" d="m254.33,226.87c-9.89.02-19.77.05-29.66.08-.51-18.13-2.03-36.08-9.33-53.02-.57-1.33-.99-2.65,1.12-2.57,6.32.24,12.75-1.04,18.94.75,4.94,1.42,8.86,4.28,9.89,9.83-6.95-3.01-14.1-1.45-21.19-.87-1.25.1-2.8.13-2.87,1.81-.07,1.59.76,2.91,2.35,3.56,1.42.59,2.9.79,4.45.77,4.69-.05,9.37-.1,14.05.02,1.87.05,3.46-.44,4.95-1.45,2.9,3.98,3.65,8.74,4.63,13.37,1.94,9.13,3.17,18.36,2.68,27.73h0Z"/>
            <path class="cls-7" d="m74.55,346.66c-27.24.41-47.2-19.89-47.12-47.29.08-27.4,21.57-46.56,48.07-46.69,25.03-.11,46.51,22.58,46.37,46.65-.16,25.96-20.58,48.3-47.31,47.32h0Zm.12-4.54c18.92,1.22,43.7-16.78,42.62-44.45-.81-20.61-20.03-39.75-41.13-40.36-21.71-.63-44.29,17.35-44.1,42.53.19,25.74,22.26,43.03,42.61,42.27Z"/>
            <path class="cls-7" d="m71.36,98.21c11.48.79,22.92,1.84,34,5.25,1.08.33,2.42.52,2.61,1.82.18,1.35-.9,1.95-2.12,2.2-2.02-.08-4.04-.22-6.06-.22-30.52-.05-61.04-.07-91.56-.1,1.14-4,4.66-4.1,7.82-4.71,12.75-2.47,25.67-3.51,38.61-4.24,5.57,1.09,11.12,1.09,16.69,0h0Z"/>
            <path class="cls-10" d="m224.49,141.5c-.83,2-.33,4.15-.73,6.19-5.03.38-10.15-.97-15.12.73-1.69,5.57-.44,11.25-.64,16.87-.06,1.6,1.54,1.29,2.63,1.41,2.36.25,4.8-.54,7.11.49-6.72.08-13.44.12-20.15.24-2.28.04-2.75-1.23-2.74-3.15.04-6.09-.05-12.19.04-18.27.05-3.17-.43-5.68-4.49-5.25-.12.02-.28.03-.37-.03-3.95-2.39-1.21-6.17-1.85-9.25-.42-2.01.84-2.97,2.96-2.83,2.28.15,4.56.14,6.84.19.68,1.77,2.15,2.94,2.77,5.02.69,2.31-2.45,5.57,1.17,6.69,2.32.72,5.02.11,7.55.27,5.02.31,10.1-.85,15.06.67h-.02Z"/>
            <path class="cls-14" d="m250.52,296.37c-.5-.37-1.07-.69-1.49-1.15-1.45-1.59-4.79-1.03-5.08-3.38-.49-3.85-.15-7.8-.15-11.71,0-.92.6-1.19,1.45-1.37,6-1.32,13.46,2.93,16.03,9.18-1.83.41-2.17-1.4-3.17-2.18-2.51-1.95-4.87-4.11-8.36-3.95-.85.04-1.87-.16-2.09,1.08-.16.88.37,1.46,1.04,1.86,4.6,2.71,9.21,5.41,13.89,8.15.33-2-2.19-3.02-1.32-4.98,3.23,2.39,4.66,6.13,6.92,9.25,5.28,7.31,8.66,15.25,9.41,24.41.25,3.11-.66,3.6-3.08,3.51-1.87-.07-3.82.43-5.58-.65-1.63-7.43-4.79-14.34-7.59-21.34-1.74-4.37-5.48-7.26-10.8-6.75l-.02.02Z"/>
            <path class="cls-6" d="m8.23,107.16c30.52.03,61.04.05,91.56.1,2.02,0,4.04.15,6.06.22-2.2,3.56-5.82,5.01-9.57,5.03-27.77.16-55.55.1-83.33.06-4.01,0-4.86-1.09-4.73-5.41h0Z"/>
            <path class="cls-7" d="m98.91,236.03c-.89-1.22-.8-2.62-.79-4.02,0-14.1,0-28.19.02-42.29,0-4.5.96-5.42,4.8-5.52,3.12-.08,4.32,1.26,4.3,4.32-.06,14.22,0,28.44-.06,42.66,0,1.62-.48,3.23-.74,4.86h-7.53Z"/>
            <path class="cls-7" d="m224.58,307.74c-2.19-1.69-4.45-2.4-7.37-1.7-2.26.54-4.75.11-8.05.11,3.73-3.41,7.68-3.95,11.35-3.54,11.61,1.31,19.6,9.66,20.93,21.16,1.07,9.31-7.97,20.61-17.61,22.91-12.27,2.92-29.49-7.4-26.51-26.34.41-2.61,1.71-4.26,4.73-3.21-.2.99-.37,1.99-.6,2.97-2.53,11.06,3.49,20.39,14.54,22.5,9.27,1.77,18.3-3.92,20.65-13.04,2.47-9.57-2.71-18.95-12.05-21.83v.02Z"/>
            <path class="cls-9" d="m224.58,307.74c9.34,2.87,14.52,12.26,12.05,21.83-2.35,9.12-11.38,14.82-20.65,13.04-11.05-2.11-17.07-11.45-14.54-22.5.22-.99.4-1.98.6-2.97,2.16-1.15,4.38-.94,6.61-.24-.57,1.39-1.22,2.76-1.72,4.17-2.19,6.17,1.28,13.11,7.79,15.64,6.12,2.38,13.4-.77,16.09-6.97,2.64-6.07-.07-13.05-6.16-15.89-.77-2.03-.15-4.07-.09-6.11h0Z"/>
            <path class="cls-9" d="m149.16,308.52c0,2.03-.02,4.05-.03,6.08-5.04,2.84-7.19,8.41-5.34,13.87,2.06,6.1,7.47,9.64,13.74,8.99,5.28-.55,10.25-5.9,10.88-11.16.45-3.77-1.48-6.79-2.4-10.13,2.16.03,4.36-.34,6.49.31.88,2.8,1.25,5.65,1.22,8.6-.12,11.26-7.87,18.33-19.54,17.71-9.97-.53-17.32-9.27-16.39-19.5.68-7.51,5.47-13.72,11.38-14.77h0Z"/>
            <path class="cls-7" d="m166.01,316.17c.93,3.34,2.85,6.35,2.4,10.13-.63,5.26-5.6,10.6-10.88,11.16-6.27.65-11.68-2.89-13.74-8.99-1.84-5.46.31-11.03,5.34-13.87,5.44,2.5,11.24,1.15,16.87,1.58h0Zm-10.18,12.16c2.68.24,3.81-1.44,3.92-3.62.12-2.34-1.48-3.27-3.72-3.26-2.46,0-3.84,1.11-3.77,3.65.06,2.3,1.18,3.53,3.58,3.24h0Z"/>
            <path class="cls-7" d="m224.66,313.85c6.09,2.84,8.79,9.82,6.16,15.89-2.69,6.2-9.97,9.35-16.09,6.97-6.51-2.52-9.99-9.47-7.79-15.64.5-1.41,1.14-2.78,1.72-4.17,3.36-.02,6.71-.11,10.07-.02,2.58.06,4.62-.73,5.95-3.03h0Zm-9.09,9.98c-.11,3.31,1.02,4.76,3.26,4.82,2.27.07,4.04-1.19,4.14-3.54.08-2.01-.89-3.64-3.39-3.67-2.4-.03-3.9.85-4,2.39h0Z"/>
            <path class="cls-7" d="m149.16,308.52c-5.92,1.05-10.7,7.26-11.38,14.77-.93,10.23,6.42,18.98,16.39,19.5,11.68.62,19.42-6.45,19.54-17.71.03-2.95-.33-5.8-1.22-8.6,2.69-1.09,4.04.24,4.78,2.67,3.91,12.84-6.71,26.92-20.07,27.61-13.41.69-22.3-9.89-23.25-18.53-1.43-12.89,5.91-22.46,18.72-25.27,3.75-.82,6.9.02,10.2,1.76-2.79,0-5.57-.05-8.36.02-2.58.06-4.78.8-5.35,3.77v.02Z"/>
            <path class="cls-10" d="m250.52,296.37c5.32-.5,9.06,2.39,10.8,6.75,2.8,7,5.96,13.91,7.59,21.34-4.65.67-9.32.18-13.98.33-2.1.07-2.86-.93-2.83-3,.08-5.93-.05-11.85.06-17.78.05-2.71-.37-5.25-1.65-7.63h0Z"/>
            <path class="cls-14" d="m224.49,141.5c-4.96-1.52-10.04-.36-15.06-.67-2.52-.16-5.22.44-7.55-.27-3.61-1.12-.48-4.37-1.17-6.69-.62-2.08-2.08-3.26-2.77-5.02,8.38-.31,16.76-.41,25.13.07,0,2.62-.04,5.25-.02,7.88,0,1.42.55,2.44,2.16,2.46,1.5.03,2.35-.71,2.48-2.2.25-2.73.48-5.45.73-8.18.63-.21,1.28-.28,1.76.22.78.82.99,10.21.33,11.07-.55.7-1.33.57-2.06.62-1.35.1-2.8-.37-3.97.72h0Z"/>
            <path class="cls-7" d="m158.36,312.99c-1.14,0-2.29.07-3.42,0-1.65-.11-1.98-1.28-1.98-2.69,0-1.58.99-1.87,2.26-1.83,13.4.37,26.8-.63,40.2.69,6.01.6,12.05-1.14,18.13-.63,1.13.09,2.28-.03,3.42.02,1.75.08,3.88-.11,3.83,2.5-.05,2.53-1.83,3.03-3.99,2.78-12.87-1.51-25.8-.34-38.69-.83-6.58-1.13-13.17-1.12-19.75,0h0Z"/>
            <path class="cls-2" d="m217.73,167.2c-2.31-1.02-4.75-.24-7.11-.49-1.09-.11-2.69.18-2.63-1.41.21-5.63-1.05-11.32.64-16.87,5.04,0,10.08,0,15.12,0,.08,5.45.19,10.9.22,16.35,0,1.01.43,2.51-1.53,2.32.02-4.82.06-9.64.02-14.46,0-1.16.57-3.1-1.09-3.18-2-.11-2,1.9-2.02,3.43-.05,4.69-.06,9.38-.09,14.08-.51.08-1.02.15-1.53.23h0Z"/>
            <path class="cls-9" d="m247.01,185.77c-1.49,1.02-3.07,1.5-4.95,1.45-4.68-.12-9.37-.07-14.05-.02-1.54.02-3.02-.18-4.45-.77-1.58-.65-2.42-1.97-2.35-3.56.07-1.68,1.61-1.71,2.87-1.81,7.1-.58,14.24-2.14,21.19.87.57,1.28,1.15,2.56,1.73,3.84h0Z"/>
            <path class="cls-6" d="m98.91,236.03h7.52v22.38c-2.94-.94-4.99-3.03-7.42-4.43-.58-.34-.8-.96-.65-1.65,1.1-5.4.18-10.87.55-16.3h0Z"/>
            <path class="cls-7" d="m205.71,117.29c4.02-.05,8.05-.08,12.07-.13-.72,2.45-.7,4.95-.57,7.45-3.87.02-7.75.04-11.61.05,0-.21,0-.44,0-.65l.11-6.73h0Z"/>
            <path class="cls-7" d="m212.29,265.18c-1.07,1.04-2.41.58-3.62.58-29.76.03-59.52.03-89.27,0-1.21,0-2.55.47-3.61-.6,32.17,0,64.33,0,96.5.02h0Z"/>
            <path class="cls-6" d="m205.71,117.29c-.04,2.24-.07,4.48-.11,6.73-3.3-.34-6.73,1-9.91-.76,1.05-6.05,1.62-6.39,10.02-5.96h0Z"/>
            <path class="cls-1" d="m219.27,166.97c.02-4.69.03-9.38.09-14.08.02-1.52.02-3.52,2.02-3.43,1.65.08,1.08,2.02,1.09,3.18.05,4.82,0,9.64-.02,14.46-1.07.18-2.14.33-3.18-.14h0Z"/>
            <path class="cls-1" d="m228.45,128.87c-.24,2.73-.47,5.46-.73,8.18-.14,1.5-.99,2.23-2.48,2.2-1.61-.03-2.16-1.05-2.16-2.46-.02-2.62.02-5.25.02-7.88,1.78-.46,3.56-.31,5.34-.05h0Z"/>
            <path class="cls-9" d="m217.22,124.61c-.14-2.51-.15-5.01.57-7.45,4.88-.82,3.96,2.76,4.01,5.44.08,4.13-2.99,1.48-4.58,2.02Z"/>
            <path class="cls-7" d="m158.36,312.99c6.58-1.12,13.17-1.13,19.75,0h-19.75Z"/>
            <path class="cls-7" d="m71.36,98.21c-5.57,1.09-11.12,1.09-16.69,0h16.69Z"/>
            <path class="cls-14" d="m223.76,148.43c-5.04,0-10.08,0-15.12,0,4.97-1.7,10.09-.34,15.12-.73.09.24.09.49,0,.73Z"/>
            <path class="cls-7" d="m195.69,123.25c3.19,1.77,6.61.43,9.91.76,0,.21,0,.44,0,.65-2.87.02-5.74.09-8.61.04-.76-.02-2.42.4-1.31-1.46h0Z"/>
            <path class="cls-1" d="m125.17,177.04c8.47-1.63,16.43-2.02,24.34-2.57,17.23-1.21,34.5-1.09,51.76-.76,2.52.05,5.12.14,7.16,1.94.86.76,1.74,1.72,1.35,2.94-.43,1.34-1.72,1.25-2.89,1.24-25.02-.1-50.04-.18-75.05-.31-2.21-.02-4.5-.12-6.67-2.48h0Z"/>
            <path class="cls-14" d="m119.43,233.06c-1.15-1-.73-2.35-.73-3.57-.02-18.38,0-36.75,0-55.14,1.22,1.14.71,2.62.72,3.95.03,18.25.02,36.49.02,54.75h0Z"/>
            <path class="cls-12" d="m43.23,190.65c-5.95-.07-11.9-.25-17.85-.15-2.83.05-3.72-.93-3.7-3.74.08-11.78-.04-23.56-.08-35.34.04-6.97.17-13.95.08-20.92-.03-2.51.9-3.33,3.33-3.32,20.3.05,40.61.05,60.91,0,2.39,0,3.35.76,3.33,3.33-.09,18.77-.13,37.55,0,56.32.02,3.33-1.51,3.67-4.17,3.67-13.95,0-27.91.09-41.86.15h0Zm12.21-59.13c-8.76,0-17.53,0-26.29,0-1.9,0-3.49-.04-3.46,2.7.13,16.25.18,32.5.13,48.75,0,2.42.89,2.94,3.12,2.95,11.68.05,23.36.35,35.03.34,4.55,0,9.11-.71,13.66-.3,5.27.48,7.42-1.19,7.43-6.32.04-14.86-.06-29.71.08-44.57.02-2.95-1.04-3.65-3.78-3.62-8.63.14-17.27.05-25.91.05h0Z"/>
            <path class="cls-14" d="m74.68,342.11c-20.35.75-42.42-16.54-42.61-42.27-.19-25.18,22.39-43.17,44.1-42.53,21.1.62,40.32,19.75,41.13,40.36,1.09,27.67-23.69,45.67-42.62,44.45h0Zm-34.59-42.62c-.08,19.94,14.63,34.96,34.35,34.9,20.64-.05,34.91-14.68,34.91-34.32,0-21.04-14.99-34.63-34.53-34.83-19.66-.2-34.77,14.77-34.74,34.25h0Z"/>
            <path class="cls-1" d="m261.25,287.93c-.87,1.96,1.64,2.99,1.32,4.98-4.68-2.74-9.29-5.44-13.89-8.15-.67-.4-1.2-.98-1.04-1.86.22-1.24,1.25-1.04,2.09-1.08,3.49-.17,5.85,2,8.36,3.95,1.01.78,1.35,2.59,3.17,2.18l-.02-.02h0Z"/>
            <path class="cls-6" d="m155.83,328.34c-2.39.29-3.51-.94-3.58-3.24-.07-2.54,1.31-3.65,3.77-3.65,2.24,0,3.85.93,3.72,3.26-.11,2.19-1.24,3.88-3.92,3.62h0Z"/>
            <path class="cls-6" d="m215.57,323.82c.11-1.53,1.61-2.41,4-2.39,2.5.03,3.47,1.66,3.39,3.67-.1,2.35-1.87,3.61-4.14,3.54-2.23-.07-3.36-1.51-3.26-4.82h0Z"/>
            <path class="cls-3" d="m55.44,131.54c8.64,0,17.28.09,25.91-.05,2.74-.05,3.81.67,3.78,3.62-.13,14.86-.04,29.71-.08,44.57-.02,5.12-2.16,6.79-7.43,6.32-4.56-.41-9.11.29-13.66.3-11.68,0-23.36-.29-35.03-.34-2.23,0-3.13-.53-3.12-2.95.05-16.25,0-32.5-.13-48.75-.02-2.74,1.57-2.71,3.46-2.7,8.76.02,17.53,0,26.29,0h0Zm-3.34,53.48c6.86,0,13.72.03,20.58-.02,1.21,0,2.91.67,3.52-.55.7-1.38-.76-2.45-1.63-3.52-5.97-7.28-12.8-13.74-19.57-20.22-7.34-7.03-15.59-12.88-24.81-17.31-2.29-1.1-3.09-.93-3.07,1.83.09,12.19.09,24.38,0,36.56-.02,2.48.76,3.33,3.26,3.28,7.23-.13,14.48-.05,21.71-.05Zm29.19-38.14c0-2.41.07-4.82-.02-7.23-.11-2.99-1.74-4.76-4.73-4.9-3.42-.15-6.85-.05-10.28-.05-1.25,0-2.39.5-2.74,1.67-.33,1.14.86,1.81,1.65,2.29,4.04,2.48,6.53,6.29,9.01,10.12,1.03,1.59,1.87,3.3,2.81,4.95.66,1.12,1.51,2.29,2.93,2,1.64-.34,1.33-1.92,1.35-3.14.04-1.9,0-3.81,0-5.71Z"/>
            <path class="cls-7" d="m40.09,299.5c-.04-19.48,15.07-34.45,34.74-34.25,19.54.2,34.54,13.79,34.53,34.83,0,19.64-14.28,34.27-34.91,34.32-19.72.05-34.42-14.96-34.35-34.9h0Zm21.4.42c-.04,7.49,5.54,13.09,13.12,13.18,7.36.08,13.64-6.12,13.59-13.43-.05-7.15-6.23-13.27-13.38-13.28-7.64,0-13.3,5.73-13.33,13.53Z"/>
            <path class="cls-8" d="m52.11,185.02c-7.24,0-14.48-.08-21.71.05-2.5.05-3.29-.8-3.26-3.28.1-12.19.1-24.38,0-36.56-.02-2.76.79-2.93,3.07-1.83,9.22,4.43,17.47,10.28,24.81,17.31,6.77,6.48,13.6,12.94,19.57,20.22.87,1.06,2.32,2.13,1.63,3.52-.62,1.22-2.32.54-3.52.55-6.86.05-13.72.02-20.58.02h0Z"/>
            <path class="cls-11" d="m81.3,146.88c0,1.9.03,3.81,0,5.71-.02,1.23.29,2.81-1.35,3.14-1.41.29-2.27-.88-2.93-2-.96-1.64-1.79-3.36-2.81-4.95-2.48-3.83-4.97-7.65-9.01-10.12-.79-.48-1.98-1.15-1.65-2.29.34-1.17,1.48-1.66,2.74-1.67,3.43,0,6.86-.11,10.28.05,2.98.14,4.62,1.91,4.73,4.9.09,2.41.02,4.82.02,7.23h0Z"/>
            <path class="cls-6" d="m61.49,299.92c.04-7.8,5.69-13.53,13.33-13.53,7.15,0,13.33,6.13,13.38,13.28.05,7.3-6.23,13.51-13.59,13.43-7.58-.09-13.16-5.69-13.12-13.18Z"/>
          </g>
        </g>
      </g>
    </g>
  </g>
</svg>