<?xml version="1.0" encoding="UTF-8"?>
<svg id="Layer_2" data-name="Layer 2" xmlns="http://www.w3.org/2000/svg" viewBox="0 0 50.97 50.77">
  <defs>
    <style>
      .cls-1, .cls-2 {
        stroke-width: 0px;
      }

      .cls-2 {
        fill: #fff;
      }
    </style>
  </defs>
  <g id="Layer_1-2" data-name="Layer 1">
    <g>
      <g>
        <path class="cls-2" d="m28.31,34.63c-3.62,0-6.96-1.58-9.17-4.33-.09-.11-.2-.24-.31-.36-.64-.74-1.62-1.87-.98-3.02.69-1.26,2.11-2.09,4-2.33.22-.03.43-.04.65-.04,1.31,0,2.42.48,3.5.94l.27.11c.82.35,1.5.58,2.19.58.11,0,.22,0,.33-.02,1.02-.11,1.88-.53,2.62-1.27l2.21-2.2c2.24-2.23,4.49-4.46,6.71-6.71.85-.86,1.32-1.95,1.31-3.05,0-1.04-.44-2.04-1.22-2.8-.77-.76-1.77-1.18-2.82-1.18s-2.15.45-2.99,1.26c-1.33,1.29-2.64,2.61-3.95,3.92-.65.65-2.03,2.04-2.03,2.04-.22.23-.63.66-1.3.66-.23,0-.46-.05-.69-.15-1.3-.57-2.62-.85-4.03-.85-.56,0-1.13.04-1.71.13l-1.47.22.35-1.45c.19-.8.62-1.33,1.05-1.79,3.15-3.31,6.11-6.26,9.05-9.02,1.52-1.43,3.49-2.34,5.83-2.72.07-.01.13-.04.2-.07.08-.03.38-.13.38-.13h2.81l.37.12c.08.03.16.06.25.08,4.61.82,7.81,3.47,9.49,7.88.26.69.41,1.39.55,2.07.06.29.12.58.19.86l.03.12v2.11l-.15.73c-.1.49-.2.98-.33,1.46-.57,2.05-1.62,3.85-3.1,5.34l-2.36,2.37c-2.29,2.3-4.67,4.69-7.04,6.99-2.35,2.28-5.43,3.53-8.67,3.53Z"/>
        <path class="cls-1" d="m38.95,2c.2.06.39.14.59.18,4.29.76,7.19,3.21,8.74,7.25.34.89.47,1.87.7,2.8v1.88c-.15.67-.26,1.36-.44,2.02-.52,1.88-1.47,3.52-2.85,4.9-3.12,3.12-6.22,6.27-9.39,9.34-2.25,2.18-5.14,3.25-7.98,3.25-3.17,0-6.28-1.34-8.39-3.96-.56-.69-1.56-1.61-1.19-2.27.6-1.1,1.92-1.65,3.25-1.82.18-.02.35-.03.52-.03,1.2,0,2.29.51,3.38.97.84.35,1.67.66,2.58.66.15,0,.29,0,.44-.02,1.25-.14,2.33-.67,3.22-1.55,2.98-2.97,5.97-5.93,8.93-8.92,2.11-2.14,2.13-5.26.09-7.27-.99-.97-2.25-1.46-3.52-1.46-1.31,0-2.63.51-3.69,1.55-1.99,1.94-3.94,3.93-5.91,5.89-.2.2-.38.45-.67.45-.09,0-.18-.02-.29-.07-1.42-.63-2.89-.94-4.43-.94-.61,0-1.23.05-1.86.15.14-.59.46-.98.81-1.34,2.92-3.07,5.92-6.08,9.01-8.98,1.47-1.38,3.3-2.14,5.31-2.46.2-.03.39-.12.58-.19h2.51m.31-2h-3.13l-.3.1c-.09.03-.17.06-.26.09-.02,0-.05.02-.07.03-2.52.42-4.63,1.41-6.29,2.97-2.96,2.77-5.94,5.74-9.09,9.06-.5.53-1.05,1.21-1.3,2.25l-.69,2.89,2.94-.45c.53-.08,1.06-.12,1.56-.12,1.27,0,2.45.25,3.62.77.36.16.73.24,1.1.24,1.11,0,1.77-.7,2.03-.97l.06-.06c.65-.65,1.3-1.3,1.95-1.95,1.29-1.29,2.62-2.63,3.94-3.92.65-.63,1.46-.98,2.29-.98.78,0,1.54.32,2.12.89.61.6.93,1.34.92,2.14,0,.82-.37,1.64-1.02,2.3-2.2,2.22-4.45,4.47-6.63,6.63l-2.29,2.28c-.58.57-1.24.89-2.03.98-.07,0-.15.01-.22.01-.52,0-1.09-.2-1.8-.5l-.26-.11c-1.12-.48-2.38-1.02-3.9-1.02-.26,0-.52.02-.77.05-2.21.28-3.89,1.29-4.75,2.83-.97,1.76.43,3.38,1.1,4.15.1.12.2.23.28.33,2.4,2.99,6.03,4.71,9.95,4.71,3.5,0,6.83-1.35,9.37-3.82,2.39-2.32,4.78-4.71,7.08-7.03.78-.78,1.55-1.56,2.33-2.34,1.61-1.61,2.74-3.55,3.36-5.77.15-.53.25-1.04.35-1.53.04-.2.08-.4.12-.6l.05-.21v-2.33l-.06-.23c-.07-.27-.12-.55-.18-.83-.14-.68-.3-1.46-.59-2.22-1.79-4.69-5.34-7.63-10.25-8.5,0,0-.05-.02-.09-.04-.08-.03-.17-.06-.25-.08l-.29-.09h0Z"/>
      </g>
      <g>
        <path class="cls-2" d="m11.33,49.77l-.15-.19c-.1,0-.17-.02-.25-.04-4.72-1.03-7.86-3.85-9.35-8.38-.19-.57-.3-1.15-.41-1.7-.05-.24-.09-.47-.14-.7l-.02-.11v-2.1s.11-.54.16-.75c.1-.5.2-1.03.36-1.55.6-2.02,1.63-3.78,3.08-5.23l2.44-2.44c2.22-2.23,4.52-4.54,6.82-6.77,2.49-2.43,5.7-3.76,9.04-3.76,3.66,0,7.09,1.63,9.42,4.48.57.7,1.06,1.3.97,2.06-.09.76-.69,1.2-1.45,1.76-1.4,1.03-2.99,1.34-4.37,1.51-.08,0-.15.01-.23.01-.63,0-1.03-.32-1.28-.52l-.11-.09c-1.04-.74-2.12-1.12-3.21-1.12-1.3,0-2.56.57-3.64,1.63l-2.02,2.01c-2.26,2.25-4.53,4.5-6.78,6.76-1.15,1.16-1.48,2.5-1,4.1.46,1.54,1.5,2.44,3.16,2.77.27.05.54.08.8.08,1.05,0,1.99-.42,2.88-1.29,1.93-1.9,3.85-3.81,5.76-5.74.29-.3.76-.69,1.46-.69.28,0,.57.06.89.2,1.24.52,2.47.77,3.77.77.79,0,1.62-.1,2.46-.29l1.78-.41-.61,1.72c-.41,1.17-1.16,1.92-1.82,2.58-2.67,2.7-5.32,5.32-7.97,7.94-1.84,1.82-4.06,2.93-6.59,3.31,0,0-.04.02-.08.04-.07.03-.13.06-.2.08l-.17.06h-3.38Z"/>
        <path class="cls-1" d="m22.88,17.05c3.24,0,6.42,1.39,8.65,4.12,1.06,1.3,1.04,1.39-.31,2.38-1.16.86-2.5,1.15-3.89,1.32-.04,0-.07,0-.1,0-.35,0-.56-.24-.81-.42-1.22-.87-2.52-1.31-3.79-1.31-1.55,0-3.06.65-4.34,1.93-2.94,2.92-5.88,5.83-8.8,8.77-1.43,1.44-1.82,3.18-1.25,5.09.58,1.94,1.97,3.08,3.93,3.46.34.07.67.1.99.1,1.35,0,2.55-.57,3.58-1.58,1.93-1.9,3.86-3.82,5.77-5.75.25-.26.47-.39.75-.39.15,0,.31.04.51.12,1.35.56,2.73.85,4.16.85.88,0,1.77-.11,2.68-.32-.35.98-1.01,1.63-1.64,2.27-2.62,2.64-5.27,5.26-7.92,7.88-1.68,1.66-3.69,2.68-6.04,3.03-.16.02-.32.11-.48.17h-2.71c-.18-.22-.44-.16-.67-.21-4.32-.95-7.23-3.49-8.61-7.71-.25-.75-.36-1.54-.53-2.31v-1.88c.15-.71.27-1.43.47-2.12.54-1.83,1.47-3.45,2.82-4.8,3.08-3.07,6.13-6.17,9.25-9.21,2.39-2.33,5.39-3.48,8.34-3.48m0-2h0c-3.6,0-7.06,1.44-9.73,4.05-2.29,2.23-4.57,4.52-6.78,6.74-.83.83-1.65,1.66-2.48,2.48-1.57,1.57-2.69,3.47-3.33,5.65-.17.56-.27,1.1-.38,1.63-.04.21-.08.42-.13.63l-.05.21v2.32l.05.22c.05.23.1.46.14.69.12.58.23,1.18.44,1.81,1.59,4.86,4.95,7.89,9.99,9.02l.21.27h4.05l.34-.13c.08-.03.15-.06.23-.09,2.68-.43,5.04-1.63,7-3.56,3.18-3.14,5.63-5.57,7.93-7.89l.06-.06c.7-.7,1.56-1.57,2.05-2.95l1.22-3.44-3.55.83c-.76.18-1.51.27-2.23.27-1.17,0-2.27-.23-3.38-.69-.44-.19-.86-.28-1.28-.28-1.19,0-1.93.74-2.17.99-1.71,1.73-3.59,3.6-5.75,5.73-.69.68-1.4,1.01-2.17,1.01-.19,0-.4-.02-.61-.06-1.29-.25-2.05-.91-2.4-2.07-.38-1.25-.14-2.21.75-3.1,2.3-2.31,4.61-4.6,6.92-6.9l1.87-1.86c.88-.88,1.9-1.34,2.93-1.34.87,0,1.76.31,2.62.93l.07.06c.3.24.92.73,1.9.73.11,0,.23,0,.35-.02,1.5-.18,3.26-.53,4.84-1.7.84-.62,1.7-1.26,1.85-2.44.15-1.19-.56-2.05-1.19-2.81-2.52-3.08-6.24-4.85-10.2-4.85h0Z"/>
      </g>
    </g>
  </g>
</svg>